/* XPM */
static char *contreplongee[] = {
/* columns rows colors chars-per-pixel */
"72 102 11 1 ",
"  c #2D2D2F",
". c #3F3E40",
"X c #403F42",
"o c #59575A",
"O c #80807F",
"+ c #7F7D80",
"@ c #807F81",
"# c #9B9B9C",
"$ c #D9D9D9",
"% c #BFBFC0",
"& c #7F807F",
/* pixels */
"$$$$$$$$$$$$$$$$$$$$$$$$$$$%$%%$$$$$$$$$$$$$$$$$$$$$$$$%$$$%$$%$%$$$%$$%",
"$$$$$$$$$$$$$$$$$$$$$$$$%#Oooooo&#%$$$$$$$$$$$$$$$$$$$$$$$$$$$$$$$$%%$%$",
"$$$$$$$$$$$$$$$$$$$$$%#oooooXoooXooo#$$$$$$$$$$$$$$$$$$$$$%$$$$%$%$$$$$%",
"$$$$$$$$$$$$$$$$$$$%#ooooXX... .XXoXo&$$$$$$$$$$$$$$$$$$$$$$%$$$$$%%$%%$",
"$$$$$$$$$$$$$$$$$#@oooXX.. .. .  ...Xoo#$$$$$$$$$$$$$$$$%$$$$$$%$$%$%$$$",
"$$$$$$$$$$$$$$$$#ooXXXX........ . . ..XX#$$$$$$$$$$$$$$$$$$$$$$$%$$$$$%%",
"$$$$$$$$$$$$$$%oooXXXX......X... . . ...X#$$$$$$$$$$$$$$$$%$$$$$$$$%$%$$",
"$$$$$$$$$$$$$#ooXXXXXXoX....X.... . . . .o%$$$$$$$$$$$$$$$$$$$%$$%$$$$%$",
"$$$$$$$$$$$$oooX...XXoXXXoXX..... ...   ..X%$$$$$$$$$$$$$$$$$$$$$$$$%$%$",
"$$$$$$$$$$%ooo.X.XXXXXXXXXXXX...... .  .. .o%$$$$$$$$$$$%$$$%$%$%$%$%$$%",
"$$$$$$$$$%oooX.XXooXXXXXoXXoXXX.X.Xooo...  .o$$$$$$$$$$%$$$$$$$$$$$%$$$$",
"$$$$$$$$$oooXXXXXXXXXooXXXXoXX  .o&#%#&oo..Xo&$$$%$%$$$$$$$%$%$$%$$$$%%$",
"$$$$$$$%ooXXXXo.XoXXXooXX....oo#@oo###&ooXXooo%$$$$$$$$$$$$$$%$$%$$$%$$$",
"$$$$$$$oooXoXoXoXXoooX.oX..Xo#%%#&o..oX.oX ..oo%$$$%%$$$$$$$$$$$$$%$$$%%",
"$$$$$$ooXXXXX.oXXoooXXoXo@ooooooXX.        . ..&%$$%$$$$%$$%%$%$$$$%$%$$",
"$$$$$#oXXoXXXooXoooXoXo#o#@###o..               o#$%%$%%$$$$$$$$%$$$$$%$",
"$$$$#oooXoXXoXXoXooXoo#%%###%##o                ..#%%#%%$$%$$%$$$$%%$$%$",
"$$$%ooXXXXXoXooXXo+Xo@@@#Oo#ooooo                  &##&#%$$$$$%$$%$$%$$%",
"$$$#ooXXXXXXooXoX.Xo%#o#oo  ooXoXo                . o&oo&%$%$$$$$$$$$$$$",
"$$$oXXXooXoooXXXX.o%@oXX    .                        .o.XO$$%$%$$$%%$%%$",
"$$@o.XXXXXoooX.X.o$#o ..                                .X###$%$%$$$$$$%",
"$$oX.XXoXXXooX.XX##@o XX                                 .o.o#%%$$%$$%$$",
"$%oXXoXoXoXXoX .o#oo   X         X  X..X    .            ....o##%$%$%$$%",
"$#oXXXXXooooXX.  oo .  .      Xo#&#oOoooooo.oooo.XXo.     . .XO##%$$%$$%",
"$#oXXXXXooXXXX . .oX        .o#%%###Oo#&&&&o#o&++&+&Oooo    ..o#&#%$%$$$",
"$#oXoXoooXX.X .XX .X        #$$$%%######&#@###@O@@OO#&#oo     .oo&%%%$%$",
"$ooXXX.oooX.....           #$$$$$$%%####&O#O&#&O#&&O&&#&&&     ..&#%$$%$",
"$@oXXX.oXoX. ..          o$$$$$$$%%####O##&&&O@##@#@O&OO&&o     .oo&%$$%",
"$#oXXXooXXXX. ..    .    %$$$$$$$%%%#####O##O&&#&&&&&&&O&&&o    .ooo&%$$",
"$%oXXXoXooXX.XXX.  .X   #$$$$$$$$%%%%####O&O##@O&&&&&&&&&&&&    .oXoo&$%",
"$%ooXXoXooXXXXXX    XX.X%$$$$$$$$%$%%###@#O##&&O#O&&&&&&&&&&&   ..o#.o%$",
"$$oooXoo.XXoXXX   .. .X#%$$$$$$$$$$%#######O####@@&#O&&&&&&&&.  .XoooO%$",
"$$&XXXo.XXooXX. .oXX..o#$$$$$$$$$$%%############OOO##OOOO@@@@oXX.Xoo.#%%",
"$$#oXXo...XXXX   .o. X#$$$$$$$$%%%%%######O##O##O#@+OOOOO@@@+o.......#%%",
"$$$oo.o.. XXXX..Xoo. o#$$$$$$$##O&oooOOO##@#&O+o+o+o#&++O+o@@o. ... .o#$",
"$$$#oXX... .XoXooooX o#$$$%#ooX. ...Xoo&o+++o&oXooooooo+O##o+o..   .oo&%",
"$$$$ooX. .  Xo.oo#&X..#$$$##OoXo. . .Xooo#o+oooXX      Xoo@@+oX..  Xo&&%",
"$$$$#oo.. ..oo.o&#oX  #$$$$%#oooooX.XXXo+o+oooX         ..oo+oX  .X&O&&%",
"$$$$$ooX. X.XooO##oo .$$$$$%#oooooooooooo+o+ooX.X. .  .  . .ooX. .o#%%%$",
"$$$$$%oX..o.Xoo###oo.o$$$$$%###&ooooooo&+#oooooXXoXX XoooX..ooX . o&%#%$",
"$$$$$$#Xooo ..o%#&oo o$$$$$$%##oooooooo#OOooooXXoXXooooooooXXXXX.XoO#%%%",
"$$$%$$$&o#o.  o#%&&o #$$$%$$%##oooooooo####+oXoXXXXXoooooooooXX..oo###%%",
"$%$$$$$$#&o.. o#%##Xo$$$%$$$$%#oooXXXoo#%%#oooXXXoooooooooooooX...oo%%%%",
"$$$$$$$$%oX. .o#%#&.o$$$%$$###oooooX.oo#$%#oooXXXXXoooooooXoooX ..&&#%%$",
"%$$$$%$$$#o. Xo#$%#o$$$$$$$%oo..  ..XXo$$##oooX..XooooooXoXoooo.. o#&%%%",
"$$%$$$$$$$#.ooX#%$#o$$$$$$$%%#ooX.. Xo%$$#O&oXX  .... oXoXoXooo ..o#O%%%",
"$%$%$$$%$$$+oo.o%$##$$$$$$%##oOooXXoo#$$$##&&oo.         .ooooo....###%%",
"%$$%$%$%%%#ooo.X#$%$$$$$$$%%#oooooooO$$$%#&+oooX.   XXXXXoooooo  . &#&%%",
"$$%$%$%#%&oooo..#%#%$$$$$$$$#oooooo#$$$$%#@+@oooXXXXXooooo++ooo. ..X##@%",
"%$$%$$%%&ooooo .o#&%$$$$$$%%#O####%$$$$$%##+@ooooooXooXoo+o+@+o  ...o###",
"$%$%%%$#&oXoX...o#o$$$$$$$%###O###$$$$$$%#@@+o+ooooooooo@o@@+@oX    X&##",
"%$%$%%#&o.X&X   ooo$$$$$$$###O##o#$$$$$%###@@ooo++o@@@@+@@+oooo.    ..o#",
"%$$%$#o ..XoX.. ooX$$$$$$%##Ooo#Oo%$$$$$##++@ooo+o+++++@@+++@+o.    ..Xo",
"$%%%%#o.oo......X..$$$$$$%#oo##oo%$$$$$%#@#o@@+ooo+o+oo+@++@@oo      .X.",
"%%$%#%##&.   oooX.o$$$$$%#o#o&oo%$$$$$%##@+o@o+oooooo+o+o@@@@@oX   .. ..",
"%$%$%O&#o  .Xoo.oXo$$$$$#&oooooo$$$$$$##o+o+@oo+ooooooo@@@@@o@o.    ..XX",
"%%%%##XoX. Xoo.ooo@$$$$$#++ooooo$$$$$$#ooooooooooXXXoooooo@+o@oX      .X",
"%%%$%#oo   ..o&#oo#$$$$$oooooo@@#%##$$#oooooooooooooooooo+oo+ooX       .",
"%%%%#%#X   Xooo&oo%$$$$$@oooo@@#%#%%%$#oXoX  ..XoooooXooooo+o@@X        ",
"%%#%%%#o   ooo#&o#$$$$$$##ooo@o##o#@+#%oXX.    XooooooXooooooooX .      ",
"##%#%##&. .ooo&&#%%$$$$$$#oooo@##ooooXoo       .oooooooooXoooooo      . ",
"%%%%%%%oX.oo&oo&##%$$$$$%@oooo#oooXo....        XXoXXooooooooooX    . ..",
"%%%#%%$#o.Xo&&oooo%$#$$$%+oo+##@ooXX              XXXXoooooooooX    X.XX",
"#%%%%%$%oXooooooX.#$#$$$%o   #%##oX..             .  .XXoooooooX    ..Xo",
"%%%$%%$%Oo&##%oXo &$#$$$$oo.  O%##oXX.XX.              .ooooooo.        ",
"%%%%%$%%OooO##oXX o$%%$$$OoO#OoO%%##ooooX.      .       ooooooo         ",
"$%%$%%$%oooo%&.X. o$$%$$%OO#$$$%#####ooXXX            ..ooooooo         ",
"%$$%$$$%oooXOoXo.XX%$$$$$%#%$$$$$%#oooXX. .          XXoooooooX        .",
"%$%$$$%$O.ooXooX . O$%$$$%$$$$$$$$%@+oooX......X.XoXoooooooooX         .",
"$%$%%$$$%XoOoXo    o$$$$$%$$$$$$$$%#+++ooooooXoXoooooXooooooo         ..",
"%$%$%$$$$OX#ooo .. o$$$$$$$$$$$$$$%@oooooooXooooooooooooooooo.          ",
"%$$$$$%$$OX#o&X  . X$$$$$$$$$$$$$$#@+oooooooooooooooooXoooooo          .",
"$$$%$$%$$#o&o&X... .$$$$$$$$$$$$$%#@oooooooooooooooooooooooo           o",
"$%$$$$$$$$oXo&ooX.. $$$$$$$$$$$$%%#oooXoXXXXXooooooooooooooX         .o#",
"$%$%$$$$$$Oo&oXoo . #$$$$$$$$$$$%###ooXXX.XXoooooooooooooooX         Xo&",
"$$$$$$$$$$OoO&.XX .Xo$$$$$$$$$$$##+ooooXoXoXoooooooooXooooX         .oo#",
"%$$$$$$$$$OO#O.X    X$$$$$$$$$$$%#+oooooXooXoooooooooXooXX            o#",
"$$%$$$$$$$O#Oo..     #$$$%$$$$$$%#@@@ooooooooooooooXooXooX            .o",
"$$$$$$$$$%O#Oo..     o$$$$%%$$$$$%##@oooooooooooooooXoXoX              &",
"%$$$$$$$$$#%OX.      X$$$%%$$$$%%%#@@@@o@ooooooooooXXoXXX              o",
"$$$$$$$$$%##X .      .o$$$%$%$%%%%##oooo@oo@oooooooXoX.               .@",
"$$$$$$$$$%ooXX      oXo%$$%%%%%%%%@oo+@oo@oooooooX.XXX.               .o",
"$$$$$$$$%ooo          o@%$%%%%#%%##o@ooooooooXoXX..XXX            X    o",
"$$$$$$$$###X XX      Xoo#%%#%%#%%#ooooo@oooooXX.X .XXX            XX   #",
"$$$$$$$##%oooX.       o#&#%%%#####ooooooooXXXX......                  .#",
"$$$$$$##%#ooo         oooO#%#####+ooXooXXXX.XX.   .                XX  #",
"$$$$$%#%$%oo          XoO&O#%#O&oooXXX..XXXX.. .                    X .#",
"$$$$$%%$%ooX    #o    ooo&OO###ooXX.....X..     .                     X#",
"$$$$$$$$#ooX   X$.    oo&O#O##O+oX..                               .  X#",
"$$$$$$$$@@o    o%     .oo+o###O+ooX...                   .            X%",
"$$$$$$$$#oX    ##      oooOO#####oX. .                   o    .     . o#",
"$$$$$$$$#oX    #O       ooo######oo.                         oo       o%",
"$$$$$$$$#oo   .$#        oooO####oooX.                  .X  X%        o$",
"$$$$$$$$%oo    $#   .. .  oooOO####oX                   ..  o#      ..#$",
"$$$$$$$$$#oX  .#X    ...  .XXoo###ooX.                      o#      XX#$",
"$$$$$$$$$%ooX Xo.     . . XXXXooo#oX.                      Xoo     .X&$$",
"$$$$%%%$$$%ooooX           .   .Xoo.                                o%$$",
"%ooXooo+%%ooXX                . .                                  X#$$$",
".   o#oooXoooo.XX.                                                .o$$$$",
"    ooooXXXoooooo.                                               .o%$$$$",
"     oooX..XooooXX.   .   .                                      X$$$$$$",
"    XooooX.X.XoooXXX....    .                                   .#$$$$$$"
};
