/* XPM */
static char *langue[] = {
/* columns rows colors chars-per-pixel */
"76 107 5 1 ",
"  c #0A0407",
". c #2C120B",
"X c #5E2D1A",
"o c #9E6047",
"O c #DCA391",
/* pixels */
"...................        ...              .X....... ..  .... .oooooooooooX",
" ....... ......X.....      .                .X......  .. .....  XooooooooXoX",
" ...     ........XXXX.                      .X......    ....X..  .ooooooXXoX",
"   .................X.Xo.                    ....XX... ...XXX......XXooooooo",
"   .................. oOX                    ..XXXXX.....X.........X..XXoooo",
"      ...    ........ oO                     ..XoXXX.....  ........X   ..XXX",
"      ...   ........  oX                      .XooX.X...    ...X...       ..",
"     ...   .... .... ..                        .XXXX.....    ..X....       .",
"           ... ....                     ......   ........   .......       ..",
"           .....                         ..XXXXXX... ..X...  ...XX.       ..",
"           .....                           .XXXXoXXX..X.........XX.       ..",
"           .. ..                             ..XXXXoXX....... X..XX.      ..",
"           .. ..                               .XX..XX..XXXX. ....X.       .",
"          ...  .                             ...XoX..oXXXXXX.  ....X.       ",
"          ...                               ...XXoooXXoooXXX.........       ",
"          ...                               ...XXXooooooooXX...... ..       ",
"           .                                .XXXXXXXoOOOOoX.. ....  .       ",
"                                 .....     ..XXoooXooOOOOOX.  .. .. .       ",
"                                 .XXXX......XXXoooooOOOOOOX.  .. .  .       ",
"                                 .XooXoXXooXoooooOOOOOOOOOX..  . . ..       ",
"                                .XoooooooooooooOOOOOOOOOOOX..  ......       ",
"                                .XoooooooOOOOOOOOOOOOOOOOOX..   ....        ",
"                                 .XooooooOOOOOOOOOOOOOOOOOX.     ..         ",
"                       .         .XooooooOOOOOOOOOOOOOOOOo..                ",
"                       .         .XXoooooOOOOOOOOOOOOOOOOo..                ",
"                 .    ..         .XXoooooOOOOOOOOOOOOOOOOoX.                ",
"                      ..      .....XooooooOOOOOOOOOOOOOOOX..                ",
"                  .   ..      .....XooooooOOOOOOOOOOOOOOOX..                ",
"                .  .  ..     ......XooooOOOOOOOOOOOOOOOOO..    ..           ",
"            .     ..   .    .......XoooOOOOOOOOOOOOOOOOOO..  . ...          ",
"            .      .   ..   .......XoooOOOOOOOOOOOOOOOOoo.  .. ..           ",
"                ..      ..   .......XXoooOOOOOOOOOOOOoXoX.. ..             X",
"                        ...  .........XXXooOOOOOOOooXXoOX.....              ",
"                         ..  ..XX..........XXooOOoX.OOOO.....               ",
"                             ..XooX..X..ooX..XoooooOOOOO... .               ",
"                              ..XooXXooOOOoo.XoOOoOOOOOo  .                 ",
"                              ..XoooXXooooooXoOOOoooOOOX                    ",
"  .                           ...XooooooooooXoOOOOOOOOo                     ",
"                              ...XoooooooooXXoOOOOOOOOX                     ",
"                               ...XoooOoooXXXoOOOOOOOo                      ",
"                               ...XoooooooXXXoOOOOOOO.                      ",
"                                ...Xoooooo..XoOOOOOOX .                     ",
"                                ...XXooooX..XoOOOOOo. .                     ",
"                               .....XXooX.X.XoOOOOO..                 ..    ",
"                                ....XXoX...XXoOOOOX .  .              XX    ",
"                                .....XXX....XoOOOO. .  .              oo    ",
"                     .          .......X..  .oOOOo. .                 oO.   ",
"              .    .....         ...........XXoXoX  .   .             XOX   ",
"            .      .. .X.  .       ......X.XooooX       .              oo   ",
"                   X..Xo.  .       .....oOOOOOOO        .             .oO.  ",
"                  .. XooX  ..        ...XOOOOoOo                       XOo  ",
"                  . .oooX .X..    ..  ...oOOOOOX    .    .           . XOoX ",
"                 ..XooooX XXX.......XX. .XoOOoX     .    .             oooo.",
"                 .Xooooo..XX.XX.XooOOOOooXXXX.      .     .            XooOo",
"                 .oooooX.XXX.XX.oOOOOOOOo.          .                   oooO",
"                  XoXXXXXooXXX..OOOOOOOX                                XooO",
"                   .XooooooXXX.oOOOOOX.                                 .Xoo",
"                     .XXoOoXXXoOOOOX.                                    .oo",
"                        .XXXoOOOOX.                                       Xo",
"                          ..XoXX                                          .o",
"                                                                          .X",
"                                                                          .X",
"                                                                           .",
"                                                                            ",
"                                              ..   .                        ",
"                                         .   .XXXXoo.                       ",
"                                        Xoo..XXXooOO.                       ",
"                                       .XoOX..XXXooX                        ",
"                                      ...XoX....XoOX                        ",
"                                      ...Xo...XooOOo                        ",
"                                     ..XooOXXXoooOOo                        ",
"                                     ..XoOOoooooOOo.                        ",
"                                     .XooOoooooOOOo.                        ",
"                                     .XoooooooOOoOOo                        ",
"                                    ...XoooooOOooOOOX                       ",
"                                    ...XoooOOoooOOOOO.                      ",
"                                    ...XoOOOOooOOOoOOX                      ",
"                                   ....XoooOoOOOOooOO.                      ",
"                                   .....ooooOOOOoooOO.                      ",
"       ....                        ......XoOOOOooOOOo                       ",
"       ..XXX.                    .........ooOOooooOo                        ",
"       ..XXooXXXXX..XX.         ........X.XoooooooX                         ",
"       ..XXXoooooOOOOOX       .....X....XX.ooooOoX                          ",
"       ..XXXooooooOOOo.       .....XX....XXXoooo.                           ",
"        .XXXooooooOOOo      ..XX..XXXXXX..XXXoX.                            ",
".       .XXXooooooOOOX     ..XXXX.XoooooX..XX.                              ",
"        .XXXXooooooOo.    ...XXXX.XoooooX.                                  ",
"  .      .XXXooooooOX    ...XXXXXXXooooo                                   .",
"  ..     .XXXXooooOo.......XXXXXXXXoooo.                                  Xo",
"   .     ..XXXooooX........XXXXoooooooo                                  Xoo",
" .  .     .XXXoooX........XXXXoooooooo.                                .Xooo",
".    .    ..XXooX.....X..XXXXooooooooX                                XOoooo",
"     .     .XXoX..XXXXXXXXXXooooooooo                               .oOOoooo",
"  .        .XoX..XXXXXXXXXXXoooooooo.                              XOOOOOooo",
"..         .XX.XXXXXXXXXXXXoooooooo.                             .oOOOOOOOoo",
".          .X..XXXXXXXXXXXXoooooooX                             XoOOOOOOOOOo",
"    .      ....XXXXXXXXXXXoooooooX                            .XoOOOOOOOOOOO",
"  ..       ....XXXXXXXXXXXooooooX                            XooooOOOOOOOOOO",
" ..         ...XXXXXXXXXXXoooooX                           XoOoooooOOOOOOOOO",
"..    .      .XXXXXXXXXXXXXoooX                          .oOOooooooOOOOOOOOO",
".   ...      ..XXXXXXXXXXXXoX.                         .oooOoo..XooOOOOOOOOO",
"   ..         ..XXXXXXXXXXXX.                        .XooooOoX.XoooOOOOOOOOO",
" ...           ..XXXXXXXXX.                        .XXooooooXXXXoooOOOOOOOOO",
"...             .XXXXXXX.               ..........XXXXXooooooXoooooOOOOOOOOO",
"..              ..XXX..                ...........XXXXXooooooXoooooOOOOOOOOO",
"..                                   .X. ........XXXXXoooooooXoooooOOOOOOOOO",
"                                          .......XXXXXoooooooXoooooooOOOOOOO"
};
