/* XPM */
static char *lit[] = {
/* columns rows colors chars-per-pixel */
"74 106 7 1 ",
"  c #271E17",
". c #5D4233",
"X c #A06F56",
"o c #89553B",
"O c #BB8E6F",
"+ c #E1CCAB",
"@ c #C9B398",
/* pixels */
"++++++++@+++++++++++++++++++++++++++++++++++++++++++++++++++++++++++++++++",
"++++++++@+++++++++++++++++++++++++++++++++++++++++++++++++++++++++++++++++",
"++++++++++++++++++++++++++++++++++++++++++++++++++++++++++++++++++++++++++",
"++++++++++++++++++++++++++++++++++++++++++++++++++++++++++++++++++++++++++",
"++++++++++++++++++++++++++++++++++++++++++++++++++++++++++++++++++++++++++",
"++++++++++++++++++++++++++++++++++++++++++++++++++++++++++++++++++++++++++",
"++++++++++++++++++++++++++++++++++++++++++++++++++++++++++++++++++++++++++",
"++++++++++++++++++++++++++++++++++++++++++++++++++++++++++++++++++++++++++",
"++++++++++++++++++++++++++++++++++++++++++++++++++++++++++++++++++++++++++",
"++++++++++++++++++++++++++++++++++++++++++++++++++++++++++++++++++++++++++",
"+++++++++@++++++++++++++++++++++++++++++++@@+@+@@+++++++++++++++++++++++++",
"+++++++++@++++++++++++++++++++++++++@@@OOX..O@@+++@@@@@@++++++++++++++++++",
"++++++++++++++++++++++++++++++++@OX....      .oXO@+@@@@@@@@@@@@@@@@+++++++",
"++++++++++++++++++++++++++++++@X..   .......     .X@@@@@@@@@@@@@@@@@@@@@@+",
"++++++++++++++++++++++++++++O..  ..XOOOOOOOXo..    .oO@@@@@@@@@@@@@@@@@@@@",
"+++++++++++++++++++++++++@X.   .oO@@@@@@@OOOOOX.     .O@@@@@@@@@@@@@@@@@@@",
"++++++++++++++++++++++@OX.  ..XO@XooooXXXOOOOOOOX.    o@@@@@@@@@@@@@@@@@@@",
"++++++++++++++++++++@OX.  ...XO@o ..oXXXXXXXOOOOOOo   .X@@@@@@@@@@@@@@@@@@",
"+++++++++++++++++++@X.. ....oXOo . X@OXXOOXooXOOOOOo   .O@@@@@@@@@@@@@@@@@",
"++++++++++++++++++@@o.    ..oo. X@.oX.......o.oOOOOOo  ..O@@@@@@@@@@@@@@@@",
"++++++++++++++++++@X.   ...... XOOo..oOOXX...o....Xoo.....X@@@@@@@@@@@@@@@",
"++++++++++@+++++@@O.  ....... XOOo.oXXXXXXoo.....  .XX..oX..O@@@@@@@@@@@@@",
"++++++++++@++++@@O.....   .. XOXooXXo......ooo...........OOo .O@@@@@@@@@@@",
"+++++++++++++@@@OX...    .. XOXXXXooXXooo...oX.oXo........O@o..@@@@@@@@@@@",
"+++++++++++@@@@Oo...     . oXoXOOOXXoXOXoo..oo.OOXXo.oXo..X@O. @@@@@@@@@@@",
"++++++++++@@@OX.....      .ooXOOOOOOXXXXXoooo.XOOOOOXoXXo.oOX.o@@@@@@@@@@@",
"++++++++++@@Oo....        .oXXXOOOOOOXoooooo.XXXOOOXXX..o..X..XO@@@@@@@@@@",
"++++++++@@OOX...          oXXXOOOOOOOOOXXXooXOOOXXXXXX.......XXXO@@@@@@@@@",
"++++++++@OOX. .          .oXXXOOOOOOOOOOXXooXXo. .oooooo..  X.oXXO@@@@@@@@",
"+++++++@@OO...           ..XXXXXOOOOOOOXXo.oo.  ......ooo. ....oXX@@@@@@@@",
"++++++@@OOo...           ..oXXXXOOOOOOXXo.oXo...oo..  ooo...  ..oXOO@@@@@@",
"++++++@@OX. o.          ....oXXXXOOOXXXo.oXo..   ..  .ooXo    ...oXOOO@@@@",
"++++++@OOXo.X..         ....ooooXXOXXXXo...... .      .ooX.    ...XXOOO@@@",
"+++++@@OOXo.o..          ......oXXOXXXX.. ..ooooo..   .ooXo     ...XXOOO@@",
"+++++@O@OOo....          ......oXXXXXXX. .ooooooooo.. .oooo       ..oXOOO@",
"+++++@@@OO. ...      ..   .....ooXXXXOo............... .ooX         ...oXO",
"+++OO@+OXX....      ...   .....o.ooXOOo. ..XOOO@Ooo ....ooo           ..oX",
"OOOO@@Xo......      .o.  ........ooXXOo. oOOXooOOOOo.. .ooo             ..",
"OOOOXo.oo..       . .oo.  ........oXXXooXXXXoooooooX.   .oo              .",
"+@OOXXX.X..       ..oXX.  ........oXXXoXXXXXXXXXXooo. ...oo               ",
"@+OoX o.oo       .ooXXXo   ........oXXoXXXXXXoooooooo .o.o.               ",
"X.X...XXXo        ..XXXo.   .......ooo.oXXXXo......ooooo.o.               ",
"X.ooXOOoX..       .oXX...   .......oo..oXXXXX..  ....ooooo.               ",
"OXoo.OXXX.       .ooo. ..    ......oo...oXXXXXo..   ..oo..                ",
".o XoXOo.              ..     ..........ooXooXXXXo....oo..                ",
"...XX@X.              .o..       ...   ...oo..oooXoo.oo..                 ",
"oX. OO..             .oo..      ...      .........ooooo..                 ",
".oXO@O.              .ooo.      ..            ...........                 ",
".o@+OO.    oo         .oo.      ...             ......                    ",
"XoXXOX   XXOX         .ooo..    ...                                       ",
"OXXXO.  OOOOo          oXXo........                                     . ",
"XoXOX  o@XOOo          oXXXXo......                                     ..",
"oXOOo  OOOOOo          oXXXXXoo....                                 .   ..",
"@OOOo X+O.oX           oXXXXXXXo...                                 ..    ",
"OOOO.o+@ooO.           oXXXXXXXXoo..                                      ",
" XOOXX.oO@o            .XXXXXXXXoo....                                    ",
"o..XX  XOX.            .XXXXXXXXXoo.....                                 .",
"OOoXo .                .oXXXXXXXXXoo.oo....                              .",
"OXoX.                  .oXXXXXXXXXXXoXooo....     .                       ",
". oo                   .oXXXXXXXXXXXXXXoo..........                      .",
"..X.                   .oXXXXXXXXXXXXXXXXooo........                     o",
"oXXo                   .oXXXXXXXXXXXXXXXXXXXooo.....                   oOO",
"oOXX                   .XXXXXXXXXXXXXXXXXXXoooooo...                 oOOOO",
"XooX                   .XXXXXXXXXXXXXXXXXooooooooo..               XOOOOOO",
".ooX                   oXXXXXXXXXXXXXXXXXXXXXXoooo..             .OOOOOOOO",
"XX.o.                 .oXXXXXXXXXXXXXXXXXXXXXXXoo...           .XOOOOOOOOO",
"XX.oo ..              ooXXXXXXXXXXXOXXXXXXXXXXXXoooooo..     .oXOOOOOOOOOO",
".oo.X .X              ooXXXXXOOXXXXOOXXXXXXXXXXXXXXXXXXXXXXXXXXOOOOOOOOOOO",
" .o.X oX             ooXXXXOOOOOXXXOOOXOXXOXXXXXXXXXXXXOXXXXXOOOOOOOOOOOOO",
".o. ..XX.           .XXXXOOOOOOOOOOOOOOOOOOXXXXXXXXXXXXOOOOOOOOOOOOOOOOOOO",
".  ..o..            XXXXXXXXXOOOXOOOOOOOOXXXXXOXXOXXXXXXXOOOOOXXXOOOOOOOOO",
". ....            .XXXXXXXXXXXOXXXXXOOOOOXXXXXOOOOOOXXXXXXXXXXXXXOOOOOOOOO",
".   .            oXXXXXXXXXXoXXXXXXXXXXXXXXXXXXXXOOOXXXXXXXXXXOOOOOOOOOOOO",
"XXooo...     ..oXXXXXXXXXXXXXXXXXXXXXXXXXXXXXXXXXXXXXXXXXXXXOOOOOOOOOOOOOO",
"OOOOOOOOOOOOOOOOXOXXXXXXXXXXXXXXXXXXXXXXXXooooXXXoXXXXXXXOOOOOOOOOOOOOOOOO",
"OOOOOOOOOOOOOOOOOXXXXXXXXXXXXXXXXXXXXXXXXoXXXXXXXXXXXXXXXOOOOOOOOOOOOOOOOO",
"OOOOOOOOOOOOOOOOXXXXXXXXXXXXXXXXXXXXXXXXXXXOXXXXXXXXXXXXXXXXOOOOOOOOOOXXXX",
"XOOOOOOOOOOOOOOXXXXXXXXXXXXXXXXXXXXXXXXXXXXXXXXXXXoXXXXoooooOOOOOOOOOXoXXX",
"XXXOOOOOOOOOXXXXXXXXXXXXXXXXXXXXXXXXXXXXXXXXoooooooooo....XOOOOOOOOOOOXXXX",
"XXXXXOOOOXXXXXXXXXXXOOOXOXXXXXXXXXXXXXXXXooooooooooooooooXOOOOOO@@@OOOXXX@",
"XXXXXXXXXXXXXXOOOOOOOOOOXXXXXXXXXXXXXXXXXXXXXXXXXXXXXOOOXXXXXXXXOXo......+",
"XXXXXXXXoXXXXOOOOOOOOOXXXXXXXXXXXXXXXXXXXXXXXXXXXXXXXXXXXXXXXo...........O",
"oXXXXXXoXXXXXOOOOOXXXXXXXXXXXXXXXXXXXXXXXXXXXXXXXXXXXXXooooo..............",
"oXXXXoooXXXXXXXXXXXXXXXXXXXXXXXXXXXXXXXXXXXXoooooXooooooO@+@Oo. ..........",
"ooXXoooXXXXXXXXXXXXXXXXXXXXXXXXXXXXXXXXXXooo........oXO+++++++@o. .. .....",
"oooooooXXXXXXXXXXXXXXXXXXXXXXXXXXXXXXXXoo...... .oX@++++++++++++@o   . ...",
"oooooooXXXXXXXXXXXXXXXXXXXXXXXXXXXXXXXXXXXXXXXXO@+++++++++++++++++O.   ...",
".ooooooXXXXXXXXOXXXXXXXXXXXXXXXXXXXXXXXXXXXOXX@++++++++++++++++++++@O..  .",
"..ooooXXXXXXXXXOXXXXXXXXXXXXXXXXXXXXXXXXXXXo..@+++++++++++++++++++@+++@Oo.",
".ooooooXXXXXXXXXXXooooooooooooooooooooooo.....@+++++++++++++++@@@@@+++++++",
"ooooooooXXXXXXXXXoooooooooooooooo...oo........@@@+@++++@@@@@@@@@+++++++@Oo",
"oooooooXXXXXXXXXooo.....ooooooo.......   . . .@OOOO@@@@@@@OOO@@++++@@Oo...",
"oooooooXXXXXXXXoo.......ooooo......... .     .OOOOO@O@@@@@@@@+++@O... ....",
"ooooooXXXXXXXXoo..................oO@X       o@OO@@@@@@@@@+++@X..  .......",
"ooooooXXXXXXXoo.................oO@@@OX.     o@O@@@@++++++@Xo.  ..........",
"ooXXXXXXXXXXooo...    ....... .O++@O@@@@X    .OO@@++++@Xo..  .............",
"ooXXXXXXXXXoooo...           .@+@@@@OOOOOO.  X@@++@@X..    .  . ..........",
"oXXXXXXXXXooooo..     ...oooO++@@@@@@@@@@@@o O++@OX..  ...           .....",
"XXXXXXXXXXoooo...   ..ooXXXO++@@@@@@@@@@@@@OXOX..             .....  .....",
"XXXXXXXXXooooo..   ..oXXXXO@+@@@@@@@+@@@OOX.O+X......ooXXXXXXo............",
"XXXXXXXXXoooo...  ..oXXXXX@++++++@@@OXo.....X+++++++++++++++++@Xo.........",
"XXXXXXXXooooo... ..oXXXXXO++OOOOXX...........@+++++++++++++++++++++@XX....",
"XXXXXXoooooo...  .oXXXXOO@@.  .              O+@++++++++++++++++++++++++Oo",
"XXXXXXoooooo... .oXXXXXO@X. .                .@+++++++++++++++++++++++++++",
"XXXXXoooooo... ..XXXXOO@o                   . o+++++++++++++++++++++++++++",
"XXXXXooooo.... .oXXXOOO.                   ....@++++++++++++++++++++++++++"
};
