/* XPM */
static char *rose3[] = {
/* columns rows colors chars-per-pixel */
"73 103 8 1 ",
"  c #3D2F34",
". c #9C694D",
"X c #B8956D",
"o c #A0A2A6",
"O c #D0B299",
"+ c #DCC6B2",
"@ c #EAD3D5",
"# c #3E3C9F",
/* pixels */
"                        ..oo.oooooo...                                   ",
"                    ..oooooooo+oooooooooo.                               ",
"                  .ooooooooooooooo+o+oooooooo...  .                      ",
"                oooooooooooooooooooooooooooooooo. #.                     ",
"              .oooooooooooooooooooooooooooooooooooo## #                  ",
"             .ooooooooooooooooooooooooooooo+ooooooooo##                  ",
"            oooooooooooooooooooooooooooooooooooooooooooo# #              ",
"           ooooooooooooooooooooooooooooooooooo+oooooooooo#               ",
"          .ooooooo.ooooooooooooooooooooooooooo+oooo+ooooooo###    .      ",
"         .oooooooooooooooooooooooooooooooooooooooooooooooooo##    .X     ",
"         oooooooooooooooooooooooooooooooooooooooooooooo+oooooo#    oO    ",
"        ooooooooooooooooooooooooooooooooooooooooooooooooooooooo#    O.   ",
"        o.ooooooooooooooooooooooooooooooooooooooooooooooooooooo#     .   ",
"       .ooooooooooooooooooooooooooooooooooooooooooooooooooooooooo       .",
"       .ooooooooooooooooooooooooooooooooooooooooooooooooooooooooo#       ",
"       Xoooooooooooooooooooooooooooooooooooooooooooooooooooooooooo       ",
"      .oooooooooooooooooooooooooooooooooooooooooooooooooooooooooooo  oo  ",
"      ooooooooooooooooooooooooooooooooooooooooooooooooooooooooooooo.o@@+ ",
"      oooooooooooooooooooooooooooooooooooooooooooooooooooooooooooooo@@@@ ",
"     .ooooooooooooooooooooooooooooooooooooooooooooooooooooooooooooo+@@@+.",
"     Xooooooo+oooooooooooooooooooooooo+oooooooooooooooooooooooooooo+@@@@@",
"    .oooooooooooooooooooooooooooooooooooooo+ooooooooooooooooooooooo@@@@@@",
"    .oooooooooooooooooooooooooooooooooooooooooooooooooooooooo.ooooO@@@@@@",
"    oooooooooooooooooooooooooooooooooooooooooooooooooooooooooo#ooo@@@@@@@",
"    ooooooooooooooooooooooooXoooooooooo+oooooooooooooooo..ooooo.+@@@@@@@@",
"   .oooooooooooooooooOOOOOOOOOOOOOOooooooooooooooooooooooo...oo+@@@@@@@@@",
"   ooooooooooooOOOOOOOOOOOOO++++++++OOOooo+oooooooooooooooo...o@@@@@@@@@@",
"  .oooooo+oooOOOOOOOOOOOOOOO+++++++++++++OOooooooooooooooooo.o@@@@@@@@@+O",
"  .oooooooXOOOOOOOOOOOOOOOOO+++++++++++++++OOooooooooooooooooo@@@@@@@@OO+",
"  oooooooXXXOOOOOOOOOOOOOOOOO++++++++++++++++OOXooooooooooooo@@@@@@@@+O@+",
"  ooooooXXXXXOOOOOOOOOOOOOOOOOOOOO+++++++++++OOOX..ooooooo+oo@@@@O@@@+@@+",
" .oooooXXXXXXOOOOOOOOOOOOOOOOOOOO++++++++++++OOOO.. ..oooooo@@@@O+@@@@@@O",
" o+ooo.XXXXXOOOOOOOOOOOOOOOOOOOOO++++++++++++OOOOX.    .oooo@@@@X@@@@@@+O",
" ooooo.XXXXXOOOOOOOOOOOOOOOOOOOO++++++++++++OOOOXXX.     .o@@@@+O@@@@@@+O",
" oooo..XXXXOOOOOOOOOOOOOOOOOOO++++++++++++++OOOOOOXX.    o.@@@@+O@@@@@@@+",
" oooo..XXXOOOOOOOOOOOOOOOOO+++++++++++++++++OOOOOOOX..  X@@@@@@@O@@@@@@@+",
" oooo..XXOOOOOOOOOOOOOOOO++OO+++++++++++++OOOOOOOOOOX.  o@@@@@@@@@@@@@@@@",
" Xooo..XXOOOOOOOOOOOOOOOO+OOOOOOOOOOOO++O+OOOOOOOOOOOX. o@@@@@@@@@@@@@@@+",
" .o+. ...XOOOOOOOOOOXXXXOXXXXXOoOOXXXXXOOOOOOOOOOOOOOOX .@@@@@@@@@@@@@@@@",
" .+o      .XOXOOO++OX....X.     ........OOOOOOOOOOOOOOX. @@@@@@@@@@@@@@@@",
"  o        .X.OOO+++X.. ..         ......XXOOOOOOOOOOOXX +@@@@@@@@@@@@@@@",
"  o          .XOOO++O. .....  . ..XXXoX.....XOOOOOOOOOXX..@@@@@@@@@@@@@@@",
"  o.  XX.     XOOO+++X.....XXXOOOOO++OOOX.....XOOOOOOOXOX o@@@@@@@@@@@@@@",
"  .o XOO+OX.  .XOOO++OXXOOOOOOOO++++++++OOOX..XOOOOOOOXOO. o@@@@@@@@@@@@@",
"   o..OOOOOOX. .OOO++OOOOOOXXXOOO++++++++OOOOXXOOOOOOOOOO.   o@@@@@@++@@@",
"   oo.OOOOOOOX...OOO++OOOXXXXXXOOOO+++++++++OOOOOOOOOOOOO.    o@@@@@@@+@@",
"   ooo...XXXOOX..XOO++OOOXXX.XXXXXXOOOO++++++OOOOOOOOOOOO.     @@@@@@@@++",
"   ooo.   ...XOO..O++++OOXX..XXXXOOOOXXOOOO++++OOOOOOOOOO.      @@@@@@+@@",
"    oo   .o  ...X.O++++OOOX....   ...XXXXOOO++++OOOOOOOOO.      o@@@@@@@@",
"    o.  .++  .  XXO+++OO+OX.. .o  .   ..XXXO+++++OOOOOOOO.       o@@@@@@@",
"    .o....O.   .OXO+++OOOOX..X+@.      .XXXOO++++OOOOOOOO.        +@@@@@@",
"     .......XXXXXOO++OOOOOOX..XoX .XXXXXXOOOO++++OOOOOOOOX         +@@@@@",
"      ..XXXXXXXXXOO+OOOOOOOX.....XOOOOOOOOOO++++OOOOOOOOOX          .oOOO",
"      .XXXXXXXXXOOOOOOOOOOOX...XXOOOO+++++++++++OOOOOOOOOX     ..   .XOXX",
"      .OOXOOOOXXOOOOOOOOOOOOXXXXXOOOOOOOO++++++++OOOOOOOOX     .XX.OOO++X",
"      .OOOOOOXXOOOOOOOOOOOOOOOXXXOOOOOO++++++OO++OOOOOOOX..   .XXXXO++++X",
"      .OOOOOOXXOOO+OOOOOOOOOOOOOOOOOO+++++++++OOOOOXOOOXX..   .OOXO+O+@+X",
"      .OOOOOOXOOO++OOOOOOOOOOOOOOOOOOO++++++++OOOOOXOOOXX..   XO+OO+++++X",
"      XOOOOOOXOO++++OOOOOOOOOOOOOOOOO++++++++++OOOOXXXXXXX    OO+OO+++O+O",
"      XOOOOOXXOO+++OOOOOOOOOOOOOOOOOO++++++++++OOOOXXXXXOX   .XO+OO+@@+++",
"     .XOOOOOXXOOOOOOOOOOO++OOOOOOOO+O+O+++++++++OOOXXXXOO. ...XOOO++@@+++",
"     .OOOOOXXOOOOOOOOOOOO++OOOOOOOOO++++++++++O+OOOXXXXXX..X..OOO++++++++",
"     .OOOOOXOO+OOOOOOOOOO++OOOOOXO++++++++++++OOOOOXXXXX...XX.OOOOOOOO++O",
"     .OOOOXOOOOOOOOOOXOOOO+OOOOO.O++++++++++OOOOOOOXXXXXX.XXXXX+++++O++Oo",
"      XOOOXOO++++OOOOXXXXOOOOOOOOO+++@@@++++OOOOOOOXXXXXX.XX.XX+++@+O+O+.",
"      XOOOOO++++++OOOOOOOOOOXXXOO+++@+++++++OOOOOXXXXXXXX.XXX.X++++++O+O ",
"      .XOXO++++++++OOOOOOOXXOOXXOO+++++++++OOOOOOXXXXX.XXXXXXXX++++++O+. ",
"       .XXO+++@@@+++OO++OOXXOOOXXOOO++++++OOOOOXOOXXXXXXXXXX..X++++OOO.  ",
"        XX++++@@+++OO++OOXXO++OOXOOOO+++OOOOOOOOXXXXXXXXXO++OX.O+++++.   ",
"..      .XO+O+++OOOOOOOOOOO++++OOXOOOOOOOOOOOOOXXXXXXX.X+++++OXXOOXX     ",
".X.....  .OOOOOOOX.XOOOOO+++++++OOXOOOOOOOOOXXXXXXXO++OXO@@@+OOX+OX      ",
"X......  ..XXXOOX.XOOooOOO++++++OOOXOOOOOOXXXXX..XO+++OOO@@@++OX+++.     ",
"+++++OOX.    ...XXXX...XXOO+OOOOOOOOOOOOOOOOXX..O+++++OOX+@@++OX++OX     ",
"+++++++OO.      .........XoOOOXOOOOOOOOOOOOXX..O+++@@++OX+@@@+OXO@OX     ",
"O+OOO++++X.     .........XXXoX.X.XOOOOOOOXOOOXXO++@@@++OOO@@@+OXO@+O     ",
"+XXOX.XOOOX   . .. .... ...XX......XOOOOXO+++OXXO+@@@@+OOO@@@+OOO@+O.    ",
"OXOOOXX..XXX  ..XX..X....XXXXX......XXOOO++++OOXO+@@@@++OO@@@++OO@+O.    ",
"XOOOOOOOOX.XX...XXXXOX..XOOXXX......XOOO++++++O.X++@@@++OO@@@+OOO@+O.    ",
"XO++++++++OXX.....XXXX...XX.X...XOOXOOXO+++++O+..O+@@@++OO@@@++XO@+O.    ",
"XO++@+O++++OX...........XXOOOXXO++OOOOXO++++++OX O+@@@++OO@@@++XO@+O.    ",
"O+++++OO+++OX..XXX..XXXO++OOOOO+++OOOO.X+++++++X.X+@@@++OO@@@++XO@+O     ",
"O+++++OXOOXOO...XXXXOOO+++OOO+O++++OOOXX+@@@+++O X+@@@++OO@@@++XO@++     ",
"O+++OO....XOO...X..XOOOOO++++O+++OOOOOXX+@@@+++O.X+@@@++OO@@@++XO@++     ",
"O++OX..  .XOO...XXXXXOOOOOOOO+++OOOOOOXX+@@@+++OXO+@@@++OO@@@++XO@++.    ",
"O+++OOX....XOX...XXXXOOOOOOOOO+OOOOOOOXX+@@@+++OOO+@@@++XO@@@@+X.+++. #  ",
"+++++OO. ..XOX.X.....XX.XOOOOOOOOOOOXXXX+@@@+++OO++@@@@+XO@@@++X.+++.####",
"+++++OX. ...X..XXXX...XXOOOOOOOOOOOOXX.O++@@+++OO++@@@++XO@@@++X.+++.####",
"+++++O.   .....XXXXXXXXXOOOOOOOOOOOXX.XO+@@@@++OO+@@@@++XO+@@@+OX++O.####",
"+++++X..X. ... XXXOOOOOOOOOOOO++OOOXXXOO++@@+++OO++@@@++XO+@@@@OX++O.####",
"++++OOOOOX.  . .XXOOOOOOO++OOOOOOOXX.O+O++@@@++OO++@@@++XO+@@@@OX++O ####",
"++O++++OOOOX.. .XXOOOOOOOOOOOOOOXX..XO+++++@@++OO++@@@@+OO+@@@+OO++X ####",
"++OO+++++OOOOX. XXOOOOOOOOOOOOOX...XOO+++++@@+++OO++@@++OO@@@++XO+X #####",
"+++O++++++OOOOO..XOOOXXOOOOOOXX..XXOO++++++++++OOO+@@@++XO@@++XX+X ##### ",
"O++++++++++++OOX.XOOOOXOOOOOX..XXOO++++O+++++++OO++++++OX+++OXXO. ######.",
"OOO+O++++++++++OO..XOXXXXOXX..XXOO+++++O++++OOOOOO++OOOXO+OO..X  #######X",
"XOOOO++++++++++++OX..XX.XX...XXOO+++++++OOOOOOXXOOOOXXXXOOX.X. ########.X",
" .OOOO+++++++++++++OX....  .XXOO++++++++OOOOXXXXOOOXXXXXOX.X. #########XX",
"  .XOOO+++++++@@+++++OOX.  XXOOO++++++OOOOOXXXXOOOOXXXXXXX. ##########.XX",
"    XOO+++++++@@@@@++++OO..XXOOO++++++OOOOOXXOOOOOXXXXXX.. ###########X. ",
"     .OO+++++++@@@@@++++O..XXOOO+++++OOOOOXXXXOOOOXXXX.. ############..XX",
"      .OO+++++++++@@++++OX.XXOOOOOOOOOOOOXXXXOOOOX..X.. #############X...",
"       .XOO+++++++++++++OX.XXOOOOOOOOOXXXXXXOOOX..X.. ##############.XXX.",
"         XOOO+++++++++++OXXXXXOOOOOOXXXXXXOOOXX.XX.. ###############XXXOX"
};
