/* XPM */
static char *rose2_8colors[] = {
/* columns rows colors chars-per-pixel */
"72 102 8 1 ",
"  c #533832",
". c #9D694C",
"X c #B4926C",
"o c #C49C76",
"O c #D1B299",
"+ c #DDC6B1",
"@ c #B7B3AF",
"# c #757B8D",
/* pixels */
"  ##@@@@@@@@@@@@@@@@@@#@@@##@#@@@@#@@@@@@@@@@@@@@@#@@@@@#@######@@@@@##@",
"  X@@#@@@@@@@@@@@@@@#@@@@@##@@@@@@@@@@@@@@@@@@@@@##@@@@@@@@@#@@@#@##@@##",
" .#@@#@@@@@@@@@@@@@@@@@@@@#@@@@@#@@@@@@@#@@@@@@###@@@@@@###@##@##@#@@@@@",
" ##@@@@@@@@@@@@@@#@#@@@@@@@@@@@@@@@@@@@##@@@@@@@@@@##@@@@@###@#######@#@",
" o@@@@@@#@@@@@@@@@@@@@@@@@@@@@@@@@@@@@@@@@@@@@@@@@@@@@@@@@@@@@########@@",
".@@@@@@@@@@@@@@@@@@@@@@@@XXoXXoXXXXX@#@@@@@@@@@@@@@@@@@@@@@@@@@@@#######",
"#@@@@@@@@@@@@@@@@#XXXXXXooooooOOOOOooOoX@@X#@@@@#@@@@@@@@@@@@@@@@#######",
"##@@@@@@@@@@@@XXXXoOOOOOOOOOOOOO+++++++OOOOo@@@@@@+@@@@@@@@@@@@@@@@@@###",
"@#@@@@@@@@@XXXoOOOOOOOOOOOOOOOOO+++++++++++OOOoo@@@@@@@@@@@@@#@@@@@@@@##",
"@@@@@@@@@oXoOOOOOOOOOOOOOOOOOOOO+++++++++++++++++OO@@@@@@@@@@@@@@@#@@@@@",
"@@@@@@@@XXoOOOOOOOOOOOOOOOOOOOO++++++++++++++++++++OOoX#@@@@@@@@@@@@@@@@",
"@@@@@@@XXOOOOOOOOOOOOOOOOOOOOOO+++++++++++++++++++++++OoXX@@@@@@@@@@@@@#",
"@@@@@@XXoooOOOOOOOOOOOOOOOOOOOOOOOOOOO+O++++++++++++++OOoXX#@@@@@@@@@@@#",
"@@@@@XXoooooOOOOOOOOOOOOOOOOOOOOOOOOOOO++++++++++++++OOOOoX...#@@#@@@@@@",
"@@@@@XXoooooOOOOOOOOOOOOOOOOOOOOOOOOOO+++++++++++++++OOOOOX..  ###@@@@@@",
"@@@@.XXoooooOOOOOOOOOOOOOOOOOOOOOOOO+++++++++++++++++OOOOOoX.     ###@@@",
"@@@#.XXooooOOOOOOOOOOOOOOOOOOOOOOOOOOO+++++++++++++++OOOOOooX.      #@@@",
"@@@..XXoooOOOOOOOOOOOOOOOOOOOOOOOOO++++++++++++++++++OOOOOoXX.        #@",
"@@#..XXoooOOOOOOOOOOOOOOOOOOOOOOOO++++++++++++++++++OOOOOOOOXXX.     @#X",
"@@...XoooOOOOOOOOOOOOOOOOOOOOO+++++++++++++++++++++++OOOOOOOOoX..   #+++",
"@@..XXoOOOOOOOOOOOOOOOOOOOOOO+++++++++++++++++++++++OOOOOOOOOOoX.   @+++",
"@@..XXoOOOOOOOOOOOOOOOOOOOOO++OOOOOOOOO+++++++++++OOOOOOOOOOOOOOX   ++++",
"@@ ..XXOOOOOOOOOOOOOOOOOOOOO+OOOOOOOOOOOOOOOO++OOOOOOOOOOOOOOOOOo.  ++++",
"@#  ..XoOOOOOOOOOOOOOOXXooXOXXXoooOOoOOoooXXXOOOOOOOOOOOOOOOOOOOoX. o+++",
"@       .XOOXOOOOOOO+OX..XXXX.   ... .........XOOOOOOOOOOOOOOOOOOoX  +++",
"          XOXoOOO++++O......X            ......XooOOOOOOOOOOOOOOOoX. +++",
"           ..XOOO+++++X    ..           ...X.....XXXOOOOOOOOOOOOOOXX @++",
"            ..oOOO++++O. .. .     .  ..XX.XXXX..  ...oOOOOOOOOOOOooo. ++",
"   .X.       .XOOOO+++O........X.XoOOOOOOO+OOOoX..  ..XOOOOOOOOOOooOX .+",
"# .OOOOo.     .OOOO++++o..XooXOOoOOOO+++++++++OOOOX....oOOOOOOOOOooOo  #",
"# XOOOOOOOX    XOOOO++OOoXOOOOOOoOOOO+++++++++++OOOoXXXooOOOOOOOOoOoo.  ",
"@#.OOOOOOOOOX  .XOOO++++OOOOOOooooOOOOO+++++++++++OOOOoXOOOOOOOOOOOOo.  ",
"@@.XOOOOOOOOoX. .oOOO+++OOOOOoooXoooOOO+++++++++++++OOOOOOOOOOOOOOOoo.  ",
"#@X.XX.XooXooXX..XOOO+++OOOOoooXXXXooooOOOOO+++++++++OOOOOOOOOOOOOOOo.  ",
"#@@#. .XXXOOOOoX..oOO++++OOOoooX.XoooooOoooooOOO++++++++OOOOOOOOOOOOo.  ",
"@#@X.       .XOOX.XO+++++OOOooX...XXoooOOOOooXoOOOO+++++OOOOOOOOOOOOoX  ",
"#@@#   .@X     .o.XO+++++OOOOo.....      .XXooXXoOOO+++++OOOOOOOOOOOOX. ",
" @#    O+X   #  .XoO++++OOO+Oo...  .    #    .XXooOO++++++OOOOOOOOOOOX  ",
" ###. .X@@      @XOO++++OOO++oX. .X++         ..XXoOO+++++OOOOOOOOOOoX  ",
"  @#.  ..X.   ..@oOO++++OOOOOOX..XO++X     ....XXoOOO++++++OOOOOOOOOoX  ",
"  # .......XOoOX.OOO+++OOOOOOOXX...XXX. .XoOooooOOOOO+++++OOOOOOOOOOOo  ",
"    ..XXXoXXXXX.XOOO++OOOOOOOOoX......XXOOOOOOOOOOOO++++++OOOOOOOOOOOX  ",
"    ..XoooooXXX.oOOOOOOOOOOO+OoX....XXXoOOOOOO+++OOO++++++OOOOOOOOOOoX. ",
"    XXXoOOooooXXOOOOOOOOOOOOOOOX..XXXoOOOOO+++O++++++++++++OOOOOOOOOoX. ",
"    XOOOoOOOOoXoOOOOOOOOOOOOOOOOXXXXXoOOOOOOOOOO+++++++++++OOOOOOOOOoX. ",
"    XOOOOOOOOXXOOOOOOOOOOOOOOOOOOOooXoOOOOOOOO+++++++OOOO++OOOOOOOOOX.. ",
"    XOOOOOOOOXoOOOO+OOOOOOOOOOOOOOOOOOOOOOOOO++++++++++OO+OOOoOOOoOo... ",
"   .XOOOOOOOOXOOOO+++OOOOOOOOOOOOOOOOOOOOOO++++++++++++OOOOOOXoOOOOXXX. ",
"   .XOOOOOOOoXOOO++++OOOOOOOOOOOOOOOOOOOOOOO++++++++++++OOOOOooOOOOXXX. ",
"   .oOOOOOOOXoOOO++++OOOOOOOOOOOOOOOOOOOOOO+++++++++++++OOOOOooooooooX. ",
"   .oOOOOOOOXOOO++++OOOOOOOOOOOOOOOOOOOOOOO++++++++++++++OOOOOoooooooX  ",
"   XOOOOOOOXXOOOOOOOOOOOOOOOOOOOOOOOOOOOO+O+OO+++++++++++OOOOooooooooX  ",
"   XOOOOOOOXoOOOOOOOOOOOOOO++++OOOOOOOOOO++++++++++++++++OOOOoooXoooO. .",
"   oOOOOOOXoOOOOOOOOOOOOOOO++++OOOOOOOOOO++++++++++++++O+OOOOooXXoXoX. X",
"   oOOOOOOXOOO++OOOOOOOOOOOO++OOOOOOOXO++++++++++++++++OOOOOOOXXXooo...X",
"   oOOOOOXOOOO+OOOOOOOOOOOOOO+OOOOOOO.X++++++++++++++++OOOOOOoXXXXoo...X",
"   XOOOOooOOO+O++OOOOOOoooooOO+OOOOOOOO+++++++++++++OOOOOOOOOooXXXXXXXXX",
"   .OOOOXOOO+++++++OOOOooOOOOOOOooOOOOO+++++++++++++OOOOOOOOOoooXXXXX.XX",
"   .oOOOoOO++++++++OOOOOOOOOOOoooooOOOO+++++++++++++OOOOOOOoooooXXXXX.XX",
"    XoOooO++++++++++OOOOOOOOOOXoOoooOOOO+++++++++++OOOOOOOooooooX.XXXXXX",
"    .ooXOO+++++++++++OOOOOOOOOXoOOOooOOOO+++++++++OOOOOOOOOOoooXoXXXXXXX",
"     .oXO++++++++++++O++++OOOooO++OOooOOOO+++++++OOOOOOOoOOooooooXXXXXO+",
"      XXO+++++++++++OOO++OOOoXO++++OOooOOOO+++++OOOOOOOOOoooooXXXXXXO+++",
"      .XO++O++++OOOOOOOOOOooOO++++++OOooOOOOOOOOOOOOOOOOoooooXXXX..o++++",
".XXX   .oOOO++OOOOoXXOOOooOO++++++++OOOooOOOOOOOOOOOOOoOoXXXoO++OOoo++++",
"....   ..oOOOOOOo...XO@OOOOOO+++++++OOOOooOOOOOOOOooXooooX.XOO+++OOXO+++",
"oXX..   . .XXXXoX.XOOoXXXoOoOO+++++OOOOOOooOOOOOOOoooooX..XOO++++OOoo+++",
"++OOOXX       ...XXXoX...X.XOOO+OOOOOOOOOOOOOOOOOOOOOoX..XO+++++++OoX+++",
"+++++OOX        ............XooOOOoooOoOOOOOOOOOOOOOoX..oO++++++++OOXO++",
"++++++OO.        . .........XXXOooXXXXXOOOOOOOOOOooXoX.oOO++++++++OOoO++",
"XXoO+++OX.       .. ........XXXXXX.....XoOOOOOOOoO+++OoXOO+++++++++OoO++",
"OX...XOOoX    . ... .X...  ....XXX......XoooOOOoO++++OOooO+++++++++OOo++",
"OOOoX...XoX   ..oo...oX.X..X.XXoXX........XXOOoOO++++OOOXXO+++++++++Oo++",
"OOOOOOoX..oX. ..OOoXXOO...XoOoOoooX..   ..XOOoOO+++++++OXXO+++++++++Oo++",
"++++OOOOOoooX  ...XXXXXX..XXOoXXX.....XoXXoOOoO+++++++++X.O+++++++++Oo++",
"+++O++++OOooX... ....XXX.....XXXXX..XO+OoooOOXO+++++++OOo XO+++++++OOo++",
"+++O++++++OX...............oOOOOOOoOOO+OOOOOo.O++++++++OO .O+++++++OOo++",
"+++OOO++++OXX..XXoX...oooOO++OOOOOOO+++OOOOOo.o+++++++++O..o+++++++OOo++",
"+++OXOOOOOOOX..XoOXXooOOOO+++OOOO++++++++OOOo.o+++++++++O. X+++++++Ooo++",
"++OOXXOoXXOOX...Xo..XoOOO+++OOO+++O+++++OOOOOXX++++++++++. O+++++++OoO++",
"+OOX  . .OOOX....X..XoOOOOO+++++OO++++OOOOOOOXX+++++++++OX.O+++++++OoO++",
"Oo..    .oOOX...XXX.XXooOOOO+OOO+++++OOOOOOOOXX+++++++++OOoO++++++++oO++",
"OOOoX  ..XoOo....XXoXooOOOOOOOOOOO++OOOOOOOOOX.+++++++++OoOO+++++++OoO++",
"++OOo  ...oOO........XXXooXoOOOOOOOOOOOOOOOOoXX+++++++++OoOO++++++++XO++",
"++OOo  ...Xoo.XXX......XX.XOOOOOOOOOOOOOOOooXXO+++++++++OoO+++++++++XO++",
"++OOX   ...oo..XXoXXX..XXXOOOOOOOOOOOOOOOOooX.O+++++++++OOO+++++++++XO++",
"++Oo.    . .. .XXoooXXXXXooOOOOOOOOOOOOOOOoX.XO+++++++++OOO+++++++++Xo++",
"++O....   ..  .XoooOOOOOOOOOOOOOOOO++OOOooX.XOO+++++++++OOO+++++++++Xo++",
"+OXXOOoX.  ... XXooOOOOOOOOOOOOOOO++OOOooXXXOOO+++++++++OOO+++++++++oo++",
"OOO+OOOOoX     .XXoOOOOOOOOO++OOOOOOOOOXX..XO+O+++++++++OOO+++++++++oo++",
"+++++OOOOOXX.. .XoooOOOOOOOOOOOOOOOOoXX...XO+++++++++++++OO+++++++++oo++",
"+++++++OOOOOoX. .ooOOOOOOOOOOOOOOOooXX..XooO+++++++++++++OOO++++++++Oo++",
"O+++++++OOOOOOX .XXOOOOOOOOOOOOOOoXX...XoOOO+++++++++++++OOO++++++++oO++",
"O+++++++++OOOOO. XoOOOOooOOOOOOOXXX..XXoOOO+++++++++++++OOOO+++++++OXO++",
"++++++++++++OOOO..ooOoOOXoOOoOooX. .XooOO+++++O+++++++++OOO+++++++OXX+++",
"OO++++++++++++OOOX.XXoOXoXoOoooX. .XoOOO++++++O+++++OOOOOoO+++++OOoXO++O",
"+O+++++++++++++++OX..XXXXXXXXX.. .XoOO+++++++++OOOOOOOOOXoOOOOOoooXXOOOX",
"OO++++++++++++++++OOX.........  .XoOOO+++++++++OOOOOOooXXooOOoXooXXooOX.",
"OOOO++++++++++++++++OOX....    .XoOOO+++++++++OOOOOOoXXXoooOooooXXXOoX.X",
"oOOO+++++++++++++++++++OOX..  .XXOOO+++++++++OOOOOOoXXXoooOooooXXXOoXXX.",
".oOOO+++++++++++++++++++OOOO..XXoOOO+++++++++OOOOoooXXooOOOOOXXXXOXXX.  ",
" .XOO++++++++++++++++++++OOO..XXoOOOO+++++++OOOOoooXXoooOOOooXXXoX...  #"
};
