/* XPM */
static char *sunny[] = {
/* columns rows colors chars-per-pixel */
"75 105 40 1 ",
"  c #050505",
". c #120F0F",
"X c #191615",
"o c #251C17",
"O c #30241C",
"+ c #1A1E29",
"@ c #322E2C",
"# c #452D1D",
"$ c #49382C",
"% c #514438",
"& c #6D4D38",
"* c #313748",
"= c #3E4155",
"- c #544E4B",
"; c #6A5A4D",
": c #6F6559",
"> c #56566B",
", c #766F68",
"< c #996548",
"1 c #8F6E52",
"2 c #A17355",
"3 c #88796F",
"4 c #908476",
"5 c #B49069",
"6 c #B1906D",
"7 c #D19C73",
"8 c #617096",
"9 c #837C84",
"0 c #768AB6",
"q c #789DE6",
"w c #9C989A",
"e c #E4B48C",
"r c #F6CFA0",
"t c #FCEBB4",
"y c #889FD2",
"u c #8BADED",
"i c #AED3F9",
"p c #FBF7CF",
"a c #D0E0E6",
"s c #FDFEF1",
/* pixels */
"XO@%%*8qqqqqqqqqqqqqqqqqqqu0>assauuuuqqqqqqqqqqqqqquuyyyuyyyyyyyyyy00yyyyyw",
"@%;:-=0qqqqqqqqqqqqqqqqqqquq>wssauuuuuqqqqqqqqqqqqquuyyyyyyyyyyyyyyyyyy0y0w",
"X%::*>qqqqqqqqqqqqqqqqqqqquq8>assiuuuuqqqqqqqqqqqqquuyyyyyyyyyyyyyyyyyy00yy",
"+-:-*8qqqqqqqqqqqqqqqqqqqqqu0-wssauuuuqqqqqqquuuuuuuuyyyyyyyyyyyyyyyyyyy00y",
"@$--*0qqqqqqqqqqqqqqqqqqqqqy0>9ssauuuuqqqqqqquuuuuuuuuyyyyyyyyyyyyy000y0000",
"@@-@=qqqqqqqqqqqqqqqq00888888>,wwww00qquuuuuuuuuuuuuuuuuuuyyyyyyyy00yyy00yy",
"@$-@8qqqqqqqqqqqqq08>>-=>------>>>>>>80qquuuuuuuuuuuuuuuuuuyyyyyyyyyyyyyy00",
"@%-*0qqqqqqqqqqq8>====**=**=------->>>>80quuuuuuuuuuuuuuuuuyyyyyyyyy0yywy0y",
"@-*=qqqqqqqqqq8>=*******@@****------->>>>880yuuuuuuuuuuuuuuyyyyy00yy00yyyyy",
"@-@>qqqqqqqq08=***@@@*@@@@@@@@@@**------->>>80yuuuuuuuuuuuuuyyyyyyy0yyyyyyy",
"$-@8qqqqqqq8=**@@@@@@@@@@@@@@@@@@**----->>>>>>,0yuuuuuuuuuuuyyyyyyy0yyyyyyy",
"%-*0qqqqq08**@@+@++@+@@@+@@@@@@@@------------>>,8yuuuuuuuuuuuuyyyy00yyyyyy0",
"-@=qqqqq0>=@++++++@@++++++@@@@@@$--------------->8yuuuuuuuuuuuuuuuyyyyq0yyy",
"-@8qqqq8=*@++++++++++++X++@@@@@-------;133333;--->9yuuuuuuuuuuuuuuyyyyyyyyy",
"-*0qqq8*@+++++++++X+XXXX++@@@@$---;;;1wetppre63--->0uuuuuuuuuuuuuuuuuyyyy00",
"@=0q0>*@++++XX+++XXXXXXX++O@@$--;,4wwerrpssprew3;-,9wyyuuuuuuuuuuyyuyyyy000",
"@>q0>*@+++XXXXXXXXXXXXXXX+@@---:wrterrttpppptrrewww9wywwyuuuuuuuuyyuuuyqq00",
"800=@+++XXXXX..XXXXXXXXXXO@$--:epssptttppspprrrtrerwwyywwyuuuuuuuuuuyyyyyyu",
"q0=@+++XX.......XXXXX.XXo@@---4pssssppppppptettptepwwwywwwuuuuuuuuuuuuuuuuu",
"q>@++XX........XX.X...XXO@$--1wssssssssppttrertttttpppaawwwuuuuuuuuuuuuuuyw",
"8*++XX............X..XXo@@%-;1wppssssssstreeeeeeerrtppssawwwuuuuuuuuuuuywww",
">++XX....... ........XXO@$%-;26tpssssssspreee6777errrtpsseewuuuuuuuuuywwwww",
"*+X....   .  ........Xo@@$%:67ersssssssspreee62227eeeerppeeauuuuuuuuywwww,,",
"+X..        ....  ...XO@$$;57eeepsssssssspree6122577757rrwwruuuuuuywaww,,,,",
"X..            .  ..XX@@%;5ere7etssssssssppre61227751<5eewweuuiiiawww4434,,",
"..          .      .Xo@@-27rreeersssssssssspr6127e7<&&27ewwwyiuuawww44w443,",
"            .      .XO@$:7errrrrtpssssssssssr525772&;157ewwwuiiuwww444w43,-",
"                   .XO@$17rrrrrttpssssssssspr52577<<17e7533wuiiuwwww4444,-@",
"                   .X@@$2errttttppsssppppptpp7257e722572223wuiiuw4ww4,,,-@+",
"                   .O@$$2errrrtttpppsspppppsse25775222222264wiiuw3344,,,-@+",
"                   .o@@$67eeerrrttttttppssssst777722225555e6wyiiw,,,4,4,-@@",
"                   .O@O$177777eerrrrtppsssssssttr52222errtte7wiiw,:,,,,,:-@",
"                   .ooo$1555777errrttppppssssptr72227rpttppteeaiw,,:,,,,,:-",
"                  .Xooo$:652577errrrrttpppssspr75227rtttttrtrerww,,:,,::,::",
"                   .XXo$;6555577eeerrrtttpsspre7257erreeerrrtre63:::,,:::::",
"                  .XX.o$;652255777eerrrtttppte7757eeeeertppppte62::;:,::,,:",
"                  .X..o%;26212557777errrrttpe77777777eerppspptr61:::;:::,,:",
".                 ..  X$%16211225577eerrrttt777ee777eerrrttrttr6:::;:::,:::",
"..                .   .O%;661<1225777errtttr77er777eereeerrrrrt61::;;::::::",
"...                   .O$%161;;<12577errrtrreertrrrrrrreerrrtppe21:;;;;::::",
"X...                  .X@$161;&&<12577errrtttttppttttttttppppppr61::;;;;:;;",
"+X..                 ..XO$&22;&&&;12577errtttttttttttttppspppspp72,::;;;;;-",
"++...               ....O$%11&&$$&<12577errtttttttttttppssssssppe54,;;-;;--",
"++X...              .X..o$%&&&%$$$&<15777errrttrrrtttpppppppppppte61---;;--",
"+++X..              ooX.X$$$%$%$$$%&<12777errrreeerrtppttrrttptttr51;--;;-%",
"*++X...             $$OX.O%$$$$$$$$&&125777erre777errtrre7ertttttr51;---%@@",
"*+++X..             %;$oXXO$$@@#O$$$&&225777ere77777rre7777errrrre51;-%$@oX",
"=*++X..         .  .-:$oo..oOOO@###$&&<225777e77777777777777erreee5:%@OoXXo",
">*+++X..       .X  o%:OoX...XOO@@#@@$&&1127777757755555555557777752%OooXooO",
"8=*++X...      .X  O%;oXX...XooOO@OO$%&<127777755522111212255552211$oooo@%;",
"q>**++X..       .  o$$oXoXoXXXXoOOOO$$&<12577752211;;;;:;;11;11&&&%O@@@%:36",
"u8=*++X...        .X$OXXoXXXX..oOOOO#$&&<25555521;;;&%&%%%&&%%%$$&%%%;:46we",
"iq>**++X..       X.X@X.XXXXoX..XOOO@#$%&<2222221&&%%$##$$$###$$$&11&%:6wee6",
"ii8=*+++X..    .XX XO....X.....XoOOO#$$&&<11111;&%$$@@@OO@@##$#%2764146ee61",
"iiu8=*++X.... .XX .XXX....  .XXXXooOO#$$%&&;&&&&$$$#OOOO@O@$$#%1666777ee646",
"iiiy>*@++X....XXX XXXX. .  .XX...ooOOO#$$%&$$&$$$$OOOOOO@O#$$&66666666e77e6",
"iiii0=*++X...XX+  XXoX.   .......oOOO##$$%&$$$##OO#OOOO@$#$$%5776666667e611",
"iiiii0=@+X..X.X.  ..OX...   .....oOO$$%$%%%&%%$#O@O#OO@%$$$&25576666666716w",
"iiiiii8*++XX..     ....XXXoX. ...oOO$&;;&&&&;$#$O##@##$%&&&2555566666667eee",
"iiiiiiu>@++X..    ....ooooX.  ...ooO$&;11&&&1&%%##$$$&&&1155555576666667rre",
"aaaaiiiu=++X.      ..XooX... ...ooOO#&&11&&&11&&&$%%&127er75552556666657err",
"aaaaiiiw>@+.        .XXXX.    ..OoO#$&&&;&;&111;&&&15ertpp75555225666657err",
"aaaaiw9,;@+.      X..XX.     ...OOO#%&&&&&&11211<<57rttpppe55755126666557rr",
"aaiww,,,;-@X.     ..X@X      ..oO###$&;&&&&1121125ertpppssr555752111:3657er",
"iyw,,,::--%O.   .  .oOX  .   .XOO$$%&&<<&1<225257errtppssst555775111::155er",
"w9,,>>---%--@X.. .XXoOo...   .XO#$%&&&&2<11255777erttppsssp7225552;;:;;457e",
"9,:>--------%@oXXo.oO@Oo..   .o##%&<1<15522577e7eerttppssspe221255:;43:1557",
",:>-----------$XoXX$$@OOo.....o$$%&12225752277errrrttppssssr5211141:4414652",
"::-------------$OO$$$@OOooX...O%&&&12225775277eerrtttppssssp7621;;:13466756",
">-----------;;;%@$@$%OooOooXXXo%&;11122277527errrrtttpppssspee2:::;:1665556",
"--------;--;;%%%$@@%$OoOOooooOo$&;22255257527errrttptppsssspe611;,1:1226661",
"--;;---;;;;;%$$%%%$%@OOoXXooO@o%&&252522552577rrrttttpssssspe6;::;,3136263:",
";;;;;;-;--%$$$%;::%$$@OXX.ooo$O$&&175222222557rrttppppsssssp661%33;::;;;:,3",
":,,,:;--%@O@%13111&%$@O.XXXoOo$$&&1552<1222557ertppppsssssre66,$,43->-%:333",
"wew4:-%@O$%:166641&;&$O.X.Xoooo$&&<121&&222227ertpppssssst626w:@:443-*>3444",
"we4;%@O@-112666661:1&$o....ooooO&1<&<&&11125277eerppsssspe6344;O;43:;%@-,44",
"3:%@O@;1444666666111;$X....XoooO%1<<&&&<112557577erppsssp63444:O@:%O;,:%@-,",
"%@@$-:46644666664;241$X.....X.oO$<11&&&11<125522eeetppsse;:333,%%%XO;;;;;$@",
"O$;1346666666666:&61;Oo.X. .XXoO$&<;&&&&&&&;1&;122777eee2%$$%----@.@%@@@$;-",
";146666666666661%:6:%OOXX...oooO#&&&&$%&&$$&$$&;;1266331;%$OO$$==XO%%-%%@@$",
"446666666666666;%31%@.oX..oooOOOO$&$$$#$$#$%#$&&;;;;::33;::-@Xo--O@@-;::,::",
"666666666667764&%;$OXXXX.XOOO$$$$#$#OOOO$$$$#%&&;11:;-$->:33:%o+>-@@%---:,,",
"66666e766666e61@$$ooX..XoO$;12;;$O$OOooO$#$$$&$%:1;-33;-@-33,:-@@=@@@@@$%;;",
"66667e76666441&OOooX..oo#&151;&$OOOooooo@O$$&;%%;-;,333:-O-,,,,-o+@@@@@@@-%",
"666666666661;$OoOooX.XOoO#$$OO#OOXooXXXXOO$$11;;-;,433,--@-*>,:,-o+*-@O@@@%",
"666666666641$oXXoooX.XoXXoooOOOOO.X.....XOO%;-$%:,333,:%-@,-@,,::;@+@--@O@-",
"6666666641&OoX.XooXXXX...ooXXOOOOooX.....XO;--;:,343:-;--@:3-=>,,--@X+@--@O",
"77777611:&OXX..XX...X.......oOOO$%$$OXooOO$-;::,344,;-::,@-3:-@>3:%%@.X@>,-",
"7776621:$XXXX..X.   ...   ...XXO%;:-@$--;--;;:,3343:-;3;:@-,:,-*>9:-@o.X+-;",
"e7511;$o.......XX.    X.X..XXooO$;;--;:;:--;::,344,;-:,;@%--;:,-*>9,-@. X@@",
"e6;%@OX... ..XoOOXXXoO@@@@@@@@$%%%---;:::--;::,343:--,,,$@@%:--:-@,,:;@.X$@",
"7:$@OX.....Xo@@@OXooO@@@@@@@@@$%%-----;:,;;:::,44,--,33,---O-:--,:=>>;:-@-:",
"4$OooX..XoXO@@@@@X...X@XXXXoO@@%%------:,;:::,34w,-;443,-;3:@@:-;3:@>>-:;-;",
"%@OOXXXoOOoO%$@@@@X   X     .XO@$$%-;;;:::,,:,34w,;,444,-:33:@@;:,3:@>--:,,",
":%OoO@@@@@@O$-%$@@@oX.X       .o$@@$-;:,,::,,:3443:3,34,-;,4,:$X$:,3-*>>-;3",
"1$@$-----%%@$$--%%%$@@@OXX     .@-@o@-:,:;:,3,3443,3:34,:;343,:%X@,4,%+>>@:",
"3%---%$@@@@O@@@---------%@@o.   o--OXO-:;:,,3,,44333;,43::443,,3-X-44:@@8>-",
";-$@@o@@XXooo..X@%-----------%X  $:%OO@-;,3,3,,44333-;33,,3433,,3-X;44;@*>,",
"$@OooXO@@X..@X.  X@--;;;;;;-::-OXO;%@@@-;,33,,,34433;$:3,,,3443,33%O,w,%X+>",
"@@@@@@@@@@o..X.   .o@-;:::;;::;;%@$@@@@:::343:,44433:@-,3,34433,343@%44;O.@",
"------;----@@o..    .@-;::;:,:-::-%@o@-,;::,4,:3w433,@$:3www4333334,@-4,@.+",
"%%----;;::;-%%@Oo    .@;::::,:;;,:-@X@;4:,:-33,3w4433%O-3ww4434434343-:3-XX",
"$%%------;;::;%O@.    .@-:,,,,::,3:%oo;w:33%;3,3ww444:OO:434434w4334w4-,:X.",
"@@@%--------:,:-%o      @-::,,,,343;@O;w,4w--:,,4ww443$o-,,3w34ww4444w4-:@.",
"-@@$--$--::;;::::-X     .@;::,3334w4$@,w:4w,%;:,4www44-o-:,:434ww4w444w,--o"
};
