/* XPM */
static char *sunny2[] = {
/* columns rows colors chars-per-pixel */
"71 101 8 1 ",
"  c #4C3F38",
". c #986F55",
"X c #C4956F",
"o c #F9DAA8",
"O c #8BAAE8",
"+ c #FCFAE1",
"@ c #CEAD9A",
"# c #7A99D6",
/* pixels */
"OO####OO#OOOOOOO#  @++++OOOOOOOOOOOOOOOOOOOOOOOOOOOOOOOOOOOOOOOOOOOOOO#",
"O##########OOOOOO. X++++OOOOOOOOOOOOOOOOOOOOOOOOOOOOOOOOOOOOOOOOOOO####",
"O###O##OOOOO##OOO# .++++OOOOOOOOOOOOOOOOOOOOOOOOOOOOOOOOOOOOOOOOOOOO##O",
"##############OOO#  +++++OOOOOOOOOOOOOOOOOOOOOOOOOOOOOOOOOOOOOOOO#OOOOO",
"#####.    ....####..@++++OOOOOOOOOOOOOOOOOOOOOOOOOOOOOOOOOOOOOOOOOOOOOO",
".                .....@@@OOOOOOOOOOOOOOOOOOOOOOOOOOOOO#OOOOOOOOOOOOOOOO",
"                    .......###OOOOOOOOOOOOOOOOOOOOOOOOOOOOOOOOOOOOOOOOO",
"                      ........##OOOOOOOOOOOOOOOOOOOOOOOOOOOOOOOOOOOOOOO",
"                          . ...##OOOOOOOOOOOOOOOOOOOOOOOOOOOOOOOOOOOOOO",
"                              ...##OOOOOOOOOOOOOOOOOOOOOOOOOOOOOOOOOOOO",
"                                ..##OOOOOOOOOOOOOOOOOOOOOOOOOO#OOOOOO##",
"                                 ...##OOOOOOOOOOOOOOOOOOOOOOOOOOOOOOOOO",
"                                   ...#OOOOOOOOOOOOOOOOOOOOOOOOOOOOOOOO",
"                                . ......#OOOOOOOOOOOOOOOOOOOOO#OOOO#OOO",
"                              ............#OOOOOOOOOOOOOOOOOOOOOOOOOO#O",
"                          .   .... ........#OOOOOOOOOOOOOOOOOOOOOOOOO##",
"                            .....  .........#OOOOOOOOOOOOOOOOOOOOOOOOO#",
"                       ..   ...  . ..   ......OOOOOOOOOOOOOOOOOOO#OOOOO",
"                     . ...  ...........     ..#OOOOOOOOOOOOOOOOOOOOOOOO",
"                   ...... ....XX@@@XX...     ..#OOOOOOOOOOOOOOOOOOOOOOO",
"                  ..........X@oo++++o@@X..   ...#OOOOOOOOOOOOOOOOOOOOOO",
"                 ....@@@@@@@@@@@+++++oo@XX.    ..OOOOOOOOOOOOOOOOOOOOOO",
"                 ..@oo++@@@@oooooo+++oo@XXX.   ..#OOOOOOOOOOOOOOOOOOOOO",
"                ..@++++++oooooo+++o+++oo@@@X. ...##OOOOOOOOOOOOOOOOOOOO",
"                .X++++++++ooooo++++o++oooo@@X.@X###O#OOOOOOOOOOOOOOOOOO",
"               ..@+++++++++++++++++++o@ooooo@X@..X#OO##OOOOOOOOOOOOOOOO",
"              ..X@++++++++++++++++++o@oooo++@@+@XX#OO###OOOOOOOOOOOOOOO",
"             ...X@++++++++++++++oo++oXooo+++@@+oXX@OOO@X#OOOOOOOOOOOOOO",
"            . ...X+++++++++++++oooooo@oooo++oo++@X@OO@@@XOOOOOOOOOOOOOO",
"            ..XXX@+++++++++++++ooo@@@@@oooooooo+++ooOO@@X@OOOOOOOOOOOOO",
"           .X@XX@@o+++++++++++++o@@@@@X@oooooooo++++++@@@@OOOOOOOOOOOOO",
"          .XXX@@@@o+++++++++++++o@@@@@XX@@@@@ooooo+++++@@@@OOOOOOOOOOOO",
"         .XX@oo@@@o+++++++++++++oo@@@@X.XXXXX@ooooo+++++@@@.OOOOOOOOOOO",
"       ..XX@oo@@@@@++++++++++++++o@@@@X.XX.XX@oooooo++++@@o@#OOOOOOOOOO",
"       .XX@ooo@@@@o++++++++++++++o@@@@X.....XX@@@@@@o+++@@o@OOOOOOOOOOO",
"       .X@oooo@@o@oo+++++++++++++ooo@XX.....XXXXXXXXoooo@@o@OOOOOOOOOOO",
"      .XX@oooooooooo+++++++++++++++oo@X...XXXXXXXXXX@oooX@@@OOOOOOOOOOO",
"      .X@ooooooooooo++++++++++++++++o@X..XXXXXXX...X@oo@X@@oOOOOOOOOOOO",
"      .@@ooooooooo++++++++++++++++++o@X.XXX@@X..  ..@@o@X@@@OOOOOOOOO@@",
"      X@@ooooooooo++++++++++++++++++oX..XXX@@X    ..XX@@X@@@OOOOOO@@@@@",
"      X@@ooooooooo+++++++++++++++++ooX.XXXX@X......XXX@XX@@@OOOOO@ooo@@",
"     .XX@@ooooooooo++++++++++++ooooo+X.XXXX@......@oXX@XXXX#OOOOO++@@@.",
"     .XXX@@@ooooooo++++++++++oooo++++X.XXXXoXX..X@oo@XXXXXXOOOOOO#X.@@.",
"      XXXXXX@@@oooooooooooooo++++++++XXXXXXooXXXXXXXXX....@OOOOOO#.X.XX",
"      XXXXXXXXX@ooooooooo++++++++++++@X.XXXXX....XX.......XOOOOOO#X@.XX",
"     .XXXXXXXXX@@@ooooo++++++++++++++o@XXXXX.....XX.X..XXXXOOOOOO#.XX@X",
"     ..@..XXXX@@ooooooooo++++++++++++++ooooXX.....XXXX.XXXX@OOOOO#.XXXX",
"    ...@X.XXXX@@@ooooooooo++++++++++++ooooXX......X@XXXXXXXXOOOOO#...X@",
"    ..XXXXXXXXXX@@@oooooooo+++++++++++ooo@X......Xooooooo@XX@OOOO#....X",
"    ..XXXXXXXXXXX@@@@ooooooo+++++++++ooo@X..XXXX@o++o+++++@X@@OOO#.....",
"    . .XX..XXXXXXXX@@@oooooooo++++++oooXXXXXXX@o++ooooooo+oX@@OOO#.....",
"    . .XX....XXXXXXX@@oooooooo++++++o@XXX..XX@oooooooo+oooo@@oOOO......",
"      .XX.......XXXXX@ooooooooo++++o@XXXXXXX@ooooooooooooooo@o+O@......",
"      ..XX......XXXXX@@ooooooooo++oXX@XXXXX@oooo@@XX@@@ooooo@o@X.......",
"      ..XX......XXXXX@@@oooooooooo@XXXXXXX@@@@@XX@ooo++++++oo@XXX......",
"       .XX.......XXXX@@@ooooooooooXXXXX@@@@XXXX@@ooo++++++++o@XXX......",
"       .X.........XXXXX@ooooooooo@XXXXo@@@XXXX@o@oooo+++++++ooXXX......",
"       .X...   ...XXXXX@oooooooooXXX@oo@XXXXX@ooooooooooooooo@X........",
"       ..X...  .....XXX@@oooooooo@@@ooo@XX@ooooooooooooooooooo.........",
"        ......   ...XXXX@ooooooooooooo+oooooooooooo@oooooooooo.........",
"       .......   ....XXX@@@oooooo++oo++++ooooooooo@@@@ooooooooX........",
"         . .      ....XXXX@ooooooooooooooooooooooooooooooo++++X........",
"                   ....XXX@@@oooooooooooooooooooo+++++++++++++@........",
"                   ....XXXXX@ooooooooooooooooooo++++++++++++++@........",
"                   .....XX@@@@@oooooooooooooooo+++++++++++++++oX.......",
"       .            .....XX@@@@oooooooooooooo+++++++++++++++++oXX......",
"                    .....XXXX@@@ooooooo@@oooo+++++++++++++++++o@XX.....",
"                    ....X.XXXX@@ooooo@XX@oooo+++++++ooo+++++++oo@XX....",
"                     .....XXXX@@@ooooXXX@o@oooooooooo@o++o+++++o@XX..  ",
"                     ......XXX@@@oo@XXXXXX@@ooooooo@@ooooooooooooXX... ",
"                      ......XXX@@@@XXXXXX@@Xooo@@@@X@@@ooooooooooX...  ",
"                      . ....XXXX@X@XXXXX@XXX@@@@XXX@X@@ooooooooooX... .",
"                       .....XXXXXX@XXXXXXXXXXXXXXX@XXX@@@ooooooo@X...  ",
"                        ....XXXXXX@XXXXXXXXXXXXXXXXXXXXX@ooooo@@@X...  ",
"                        .....XXXXXXXXXXXX.X.....XXXXXXXXX@@@@@@@@X..   ",
"                        ...XXXXXXXXX.X..............X.XXXXXXXXXXX..    ",
"                         ...XXXXXXXXXX................X..XXXXXX...     ",
"                       . ....XXXXXXXX.......  ....................     ",
"                          .........X..    .         ... ....   ..      ",
"                           ...........                                 ",
"                            ........                           .       ",
"                            . . .  .                          ...   ...",
"                                .   .                        .XXX.   XX",
"                                                            .X@@@X...X@",
"                                                          ..XXXXX@@XX@X",
"                     ..      .. .                        .XXX.XX.X@XX@@",
"                    . ... .  ..                         XX@XX.XX..XXX@@",
"                    ........ ...                       .XX@XXXXXXXXX.@@",
"                     ...........                     .XXXXX@XXXXXXXX.@@",
"                      ...........  .            ..  .XXXXXXXXXXXXXXX.X@",
"                    .  ..... ..... .       .........XXXXXXXXXXXXXXXXXXX",
"                   ..  ... .........      .......X@XXXX..XX@XXXXXXXXXX@",
"                   ...  .. ..........  ....X@@oooooXXXXX.XXXXXXXXXXXXX@",
"                    ..  .  .............X@ooooo+++oXXXXXX...XXXXXXXXXXX",
"                    ... .......X......XX@oooo+++++oXXXXXX....XXXXX.XXXX",
"                ... ... ....X..X....XX@oooo+++++++oXXXXXXX....XXXXXXXXX",
"                ......X.....XX.X..XX@oooooo+++++++oXXXXXXXX...XXXXXXXXX",
"                ......X..X..XXXXXXX@oooooo++++++++oXXXXXXXX....XXXXXXXX",
"               ..X....XX.X..XXXX@XX@@@oooo+++++++++XXXXXXXXX.......XXXX",
"          .  . .....XXXXXX..XXXX@@@@@ooooo+++++++++X.XXXXXXX........XXX",
"          .. .......XXX@XX..XX@@@ooooooooo+++++++++@....XXXX.........XX"
};
