/* XPM */
static char *bisous[] = {
/* columns rows colors chars-per-pixel */
"74 104 7 1 ",
"  c #190E0B",
". c #5A2915",
"X c #734829",
"o c #765C47",
"O c #9C5C2C",
"+ c #AD603D",
"@ c #CD8745",
/* pixels */
"X............. ..  .       .             o                                ",
"X..... ....  .... .  .   ..                          o                   o",
"X.X..... . ... . ..                                o                      ",
"X.............. ..  .     .                                            o  ",
"X...... .  ....  . ..   .                                                o",
"X........... ......   X                                                o  ",
"........... .. ..   X o                                                   ",
"XXX...... . . .   XX.                                                     ",
"XXX......  .. .  X .                                                      ",
"XXXX..X..... . .X.                                                        ",
"X.XXo..X... . ..o                                                         ",
"XX........ .  X.                                                          ",
"OX.XX...X. ....                                           o               ",
"XXX...........    o                               o                       ",
"O..X.... . .o                                                             ",
"XX...X. ...X                                                              ",
"X.........X.                                                              ",
"X....... X    X    o                                                      ",
"..... .  X                                                               o",
"........XX  .                                                o            ",
".. .....X  .  .                           .                    o          ",
".........   .                    ....OOOOO@+OXX.                         o",
"X......                    XoO@@@O+@@@@@@@@@@@@Oooo                      o",
"....... .  .            .X@@@@@@@@@@@@@@@O@O@O@@++o.           o          ",
"X... ..   .           .X@@@@@@@@@@@@@@@@OOOO@OOOOOOOo.                   o",
"......              .O@@@@@@@@@@@@@@@@@@OXOXOX...X..XXo         o         ",
"......  .          oO@O@@@@@@@@@OO@@@@@OOX.XX..      ...o                 ",
"....X.           .O@@O@OOXOOXXOXOOO@@O@OX...                             .",
"... .           .ooXXXX.Xo X XXXXXOO@OOOX...  X                          o",
".. .. .              .. XoX   .X.XXOOOOO..   .o  . ...... o               ",
".. .  ..           ..    .X      .XXOOXXX.    .X...X..o.o.                ",
".....   oo     X.XX. .. .o XX .  .XOXOOXXX   X..XXXOXo....oo              ",
".... .     .  . .O........... .   X. o  ..  ....OOOOOO....oX       o      ",
"......      . ....XXX..X........ .   .   .    .OOX...OXX..Xo. .           ",
"... .        .....X.......... . ..          ..O.XXOX..XXXXXo.  o          ",
"... o        .........XOOO..... .   XOo.  ...X..OOOOX..oX.Xoo             ",
"...X        ...XXX...XOO@OOX.....  .@@@O. .....XXOXOXX.XXXXoo            .",
".  .        ........X+@OOOOO.......O@@@+O XXX..XX..........Xo             ",
"....        .XX......O@OOOXXO......@@+@++..OX.    ..  . ..XXo.            ",
" .X         .O.X....OXOOXO.X...XX O@@@+@++ ......   . ..XXoooo           .",
"...          O.XX...O..... . ..OO.+++@+@++..OX.........XXXOo@o.           ",
"..X          XOXOX.......  ...OO..@+@+++++O.XOOOOX.OXXXOOoXOo@.           ",
". .        ...OOO..... .......OX.O+++@+@+++..OO+OOOOOOOOO@Oooo            ",
"..         OX XO...O......XOOO+..OO@+@@+@++. .++OOOOOO@OOOO@o oo          ",
"...        XO. O..OOOO.OOOOO+O...O+@+@+@+++O.  O@@@@@@OO@+oX.ooo        . ",
"..         XOO. OOOOOOO++@+O...O.O+@+@@++@++X... .OOOOOOX. oo@@o          ",
".         .XOOX....O++OOOX...@+OO+@@@@@@@+++O.O+O.. .  ...o@@ooo          ",
"..        .OOOO@OXX.XX....O@@@O.O+++@@@@@+@++O..O@@+++@+++o@o@@o     o   .",
"          .OOOOO+@@@@@@@@@@@+O.+++++@@@+@++++o+O.XOO+O+OO+O+o@ooo        .",
"..         OOOOO@++@@+@@+@@OO.++++++@@+++XXo+++++OO.OOO+OOOO++@o          ",
"...       .XOO@O+++++@@++OOO+@++OOOO++OOX....o+@@@+O.OOOOOO+o@@o      o   ",
" .      . ...OO@++++@++OOO++@@++O...O...X.....X+@@@+OOXOOOOOoooo          ",
"..     .   .XXOO+++OOOOO++@@@@+.... ... ...   .+@@@+++OOXooooo@o      .   ",
"...    .  ..XOOOOO+OOOO@@++@@++...  .  ...   ..O@++@+@@++ooooooo          ",
"...   .    ..XOOOOOOO+@@@@+@@++.     . .      .O+@++++++o+o oooo          ",
". .        ..X.XOOO++++@+@@@@@+..            ...+++@+++++ooooooo   o    o ",
"...  ..     ..XXO.+O+++@+@+@@@+....         ...OO++@+@o+o+oXXoo.          ",
"..X. .       .X..OOO+++++@+@@++..   .     .   .XOO+o+++++o+oooo    o.     ",
"..X..       ...X.OOO+++++++@+@++.. . .   . .  ..O++@+Oo+o+ooXoX          .",
"..... .      ....O.OO++++@@+++O.... .. . ....  ..XO@o++O+oooooo .  . o    ",
"....  .      .....OOOO+O++@++O..  ..........  . ..XXOO+++ooooX.       .   ",
"....          ...OO.OOO+++++..........+++O..  .  ....ooooo+ooX...  Xo.  . ",
"...           ..O.OOOOOOOOO........O..OO... .... .....oo+oooo....     .X. ",
"XXX   .        ......OOOOOO.....OX..O.O............ ..oo+oooooo.o .o . ...",
"...   .        ..XXX.OOOO......OO................. . ..ooo+ooO. . . .  o. ",
".. .           ....OO.OOO... .O.O...............  . ..Xo+oooooo   .  .  o ",
"..             ...O.OOO.O........OOO+O....O++O.......Xooo+ooXXo    . . . .",
"  .  .     . . ...O...OOO.... ...O++++++++++OO+O.X...XXoooXoXoX        .. ",
"  .        . . .O.O..OOOOO.....OOOOOOOO++++OO....XX...oooXXo.oo        .. ",
"..  .       .   .O.O...OOO....O..OOOOOOOOOO.O........X.oXo.ooo.   ..o     ",
" .. .           .XO.O.OO.OO.O....O.O.O.O..O..... .o...XoXXX .oo       .   ",
".               ...O..O.O...............O..... .....o.X.XXoo.oo   .    o  ",
".  X            .OO.O....O....... ........    .  ..o..o.X.oXo.       .    ",
".               ...O..OO..O.O.....          .. .....o..o.oo..o.       o  .",
"X .             ..O......O...O......       . .......X..XX.XXX.        .  .",
"                 ...O..O......O...... .  . ......X.oo..ooXXoX.         .. ",
"                 .......O....O..................XXXXX.o.XXo..            .",
"                  ...O....O.O..O.OO............XXoOXX...o.o.o         . o ",
"                   ...O......OOOO..OO........OOOX+XX..X....o          .  .",
"                    .....OO....O+OO.OO.OOXXXOO..XXXX.....X.               ",
"                     .........XOOXOXOOOOO.OOOO.OX..oX....                 ",
"                     ........ ..XOXOOOOOOOO.XX.X.....   .                 ",
"                       ... . ...O....OOO.OO.X.... .                     . ",
"    .               ..        .......X..OO..... . .                       ",
"                    ..        ............. ...                           ",
"                     ..          . . ...... .                             ",
"                    ...                   .                               ",
"                     ...                                                  ",
"                    .....  .                                              ",
"                      .... .                                              ",
"                    .  ..     .                                           ",
"                     . ....  .  .                                         ",
"                         .. ..  .             .                           ",
"                      .   ..  .   . .                                     ",
"                       X. ...    . .                                      ",
"                        O. . . . .   . .                                  ",
"     .                   oX.   .      ..                                  ",
"      . X          .     .X      .. .    ..                               ",
"     ...                  .         . . ..                                ",
"  .... .          .                .                                      ",
"   XX..         . .                                                       ",
"  ..X.          .                                                         ",
"   .XX.                                                                   ",
"  ..XX.                                                                   "
};
