/* XPM */
static char *pitialich_50_16_dith[] = {
/* columns rows colors chars-per-pixel */
"82 120 16 1 ",
"  c #0D0C0A",
". c #2D2119",
"X c #614A34",
"o c #A97350",
"O c #9B6039",
"+ c #B58661",
"@ c #CF966C",
"# c #9C823D",
"$ c #D8AB97",
"% c #DBDBDB",
"& c #CFCCC9",
"* c #E7E7E7",
"= c #EFEFEF",
"- c #E5DCD9",
"; c #BDB0A8",
": c #D27D85",
/* pixels */
"**********************************************************************************",
"**********************************************************************************",
"**************************************%%%%****************************************",
"*******************************%%%%%%*%%%%%%**************************************",
"**************************%%*%%%%%%%%%%%%%%%%%%%%*********************************",
"*******************%*****%*%%%%%%%%%%%%%%%%%%%%%%%********************************",
"*******************%%%%%%%%%%%%%%%%%%%%%%%%%%%%%%%%%%%%%%*************************",
"******************%%%%%%%%%%%%%%%%%%%%%%%%%%%%%%%%%%%%%%%%%%%*********************",
"****************%%%%%%%%%%%%%%%%%%%%%%%%%%%%%%%%%%%%%%%%%%%%%%********************",
"*********%**%%%%%%%%%%%%%%%%%%%%&&&&%%%%&%&&%&%&&%%%%%%%%%%%%%%%%%%***************",
"***********%%%%%%%%%%%***%%%%%&%&;;++&&&;&;+;&;;;&;%%%%%%%%%%%%%%%%***************",
"*********%%%%%%%%%%%%%%%%%%&;&&;&+XX.X+oo;+X++o++;;;;%%%%*%%%%%%%%****************",
"*********%%%%%%%%%%%%*%%%%&&o;;Xoo... .X.XXX+XXXXooX;;;&%%*%%%%%%%%%%%%***********",
"*******%%%%%%%%%%%%%%%%%&;;;XXoX ..     .. .XX..XXXX.+;&%%*%%%%%%%%%%%%%**********",
"******%%%%%%%%%%%%%%%%%;+ooXX..X.         ..   ......X;;;%%%%%%%%%%%%%%%%*********",
"***%%%%%%%%%%%%%%%%%%%&;XX...             .         ..XX;%%%%%%%%%%%%%%%%*********",
"****%%%%%%%%%%%%*%%%%&&+....                          X;%%%%%%%%%%%%%%%%%*********",
"*****%%%%%%%%%%%%%%%%;+X.  .   .                     .Xo+;&%%%%%%%%%%%%%%%%%******",
"****%%%%%%%%%%%%%%%%%%;X    .   .      .                .o;&&%%%%%%%%%%%%%%%******",
"****%%%%%%%%%%%%%%%%;;oX.   .    .     .               ..X+;&%%%%%%%%%%%%%%%******",
"***%%%%%%%%%%%%%%%%&;X           .                       .+&%%%%%%%%%%%%%%%%******",
"**%%%%%%%%%%%%%%%%%&o..     ...                           X&&%%%%%%%%%%%%%%%*%****",
"**%%%%%%%%%%%%%%%%;o.       .  .        .                  o%%%%%%%%%%%%%%%%******",
"*%%%%%%%%%%%*%%%%%;X                    .                  .;%%%%%%%%%%%%%%%*%****",
"%%%%%%%%%%%%%%%%%&o              .     . .                  X&%%%%%*%%%%%%%%%%****",
"%%%%%%%%%%%%%%%%%&O.              .     .. ...XX......      .;-%%%%%%%%%%%%%%%%***",
"%%%%%%%%%%%%%%%%%;X..        .        ......XXXXX....... . ..+%%%%%%%%%%%%%%%%%***",
"%%%%%%%%%%%%%%%%&o.X...       .... ........XXXXXXOXXXXX......X&%%%%%%%%%%%%%%%%%%*",
"%%%%%%%%%%%%%%%%&oX.        ...X.XX.XXXXXXOOOOoOOOOOXXX....  X;%%%%%%%%%%%%%%%%%%*",
"%%%%%%%%%%*%%%%%&+X..     ...XXXXOOoo+@++@@@@+++oo+oXX.....  .;%%%%%%%%%%%%%%%%%%*",
"%%%%%%%%%%%%%%%%%+..      .XOOoo++@$$$$$$$$$$$$@@@@+OX.  ..  .o&%%%%%%%%%%%%%%%%%%",
"%%%%%%%%%%%%%%%%%;X      .XOo+$$$$$$$&$$$$$$$$$$@@@+oO...... .X;%%%%%%%%%%%%%%%%%%",
"%%%%%%%%%%%%%%%%%;X     ..Xo+@@$$$$$&$$$$$$$$$$$@@@@+OX.....  X;%%%%%%%%%%%%%%%%%*",
"%%%%%%%%%%%%%%%%%;X.    .XOo+@@$$$$$$$$$$$$$$$$@@@@@oOX. ..  .X;%%%%%%%%%%%%%%%%%*",
"%%%%%%%%%%%%%%%%%;X.    .XO+@@@@$$$$$$$$$$$$$$$@@@@@+oOX. .. ..;%%%%%%%%%%%%%%%%%*",
"%%%%%%%%*%%%%%%%%;X.   ..Xo+@@@@@$$$$$$$$$$$$$$@@@@@+oOOX  ....;%%%%%%%%%%%%%%%%%%",
"%%%%%%%%*%%%%%%%%&X.    .XOo+@@@@@$$$$$$$$$$$$$@@@@@+oOOOX ....o%%%%%%%%%%%%%%%%%%",
"%%%%%%%%%%%%%%%%%&X.    .XOo+@@@@@@$$$$$$$$$$$$$@@@@@+oOOX. ...O&%%%%%%%%%%%%%%%%%",
"%%%%%%%%%%%%%%%%%&X     ..O#++@@@@@$$$$$$$$$$$$$$@ooo+oOOOX ...o&-%%%%%%%%%%%%%%%%",
"%%%%%%%%%%%%%%%%%%o      .O#++@@@@$$$$$$$$$$$$@+OOOOOXXOOOX....O+&%%%%%%%%%%%%%%%%",
"%%%%%%%%%%%%%%%%%%;.    .XOOo+@@@$$$$$$$$$$@@+oOOo@$@+OOOOO....OOo%%%%%%%%%%%%%%%%",
"%%%%%%%%%%%%%%%%%%;.    .OOOo@@@$$$$$$$$$$$@o+oo@$$$@@+oOOOX..XooO&%%%%%%%%%%%%%%%",
"%%%%%%%%%%%%%%%%%%&X    XOOOoooooOOOo++@$@$@+++++@@+ooooooOO..OooO;%%%%%%%%%%%%%%%",
"%%%%%%%%%%%%%%%%%%%+    XOOOOXOOOOOOOoo@@@@@@+oo++oOOOoo+ooO..O#oo;%%%%%%%%%%%%%%%",
"%%%%%%%%%%%%%%%%%&%;    XOOXXo+@$$@+++++@@@@+oOoX. XOXoo++oOXXOooO$%%%%%%%%%%%%%%%",
"%%%%%%%%%%%%%%%%%%%&X   XOOOo@@@@@++ooo+@@$@+oooX .OoOo@@@ooXXOooo&%%%%%%%%%%%%%%%",
"%%%%%%%%%%%%%%%%%%%&+.  XOOOo++ooooOOooo+$$@+@o$;OO+@@@@@@oOOOooo+&%%%%%%%%%%*%%%%",
"%%%%%%%%%%%%%%%%%%%$+O  XOoooOOXX.. Xo+++$$@+@@@+@@$$@@@@@oOOOooOo&%%%%%%%%%%%%%%%",
"%%%%%%%%%%%%%%%%%%-oXO. XooooOOXoO .+$@@+@$@@+@@@@$$$$@@@+oOOOOXOo;%%%%%%%%%%%%%%%",
"%%*%%%%%%%%%%%%%%%-+XXX..Oo+@+ooo+oo@@@@+@$@@+@@$$$$$$$@@+oOOOXOoO;%%%%%%%%%%%%%%%",
"%%%%%%%%%%%%%%%%%%%;OooX.Oo+@@@@@@@@@@@@@@@@@@@@$$@$@@$@@+oOOOo+oO;%%%%%%%%%%%%%%%",
"%%%%%%%%%%%%%%%%%%%&+ooX.OOo@@@@$$$$$$@@+@@@@@@@$$$@@@@@@+oOOOoooo&%%%%%%%%%%%%%%%",
"%%%%%%%%%%%%%%%%%%%%;oOOOOoo+@@@$$$$$$@@+@@@@@o@$$$$@$@@@+oOOOooo+-%%%%%%%%%%%%%%%",
"%%%%%%%%%%%%%%%%%%%%&+o@@ooo+@@@$$$$$$@++@@@@@o+@$$$$$@@@+oOOo+oo;%%%%%%%%%%%*%%%%",
"%%%%%%%%%%%%%%%%%%%%%$@@@+oOo+@@@@@$$@@oo@$$$@@++@@@$$@@@+oOO$&$&-%%%%%%%%%%%%%%%%",
"%%%%%%%%%%%%%%%%%%%%%&++@++OO+@@@@@$$@+++@$$$@++o@@@$$@@@+ooO;*%-%%%%%%%%%%%%%%%%%",
"%%%%%%%%%%%%%%%%%%%%%%+o@@+oOo@@@@@$$@+++o@@@ooOO+@@@$@@@+ooO;%%%%%%%%%%%%%%%%%%%%",
"%%%%%%%%%%%%%%%%%%%%%%;o+@@+Oo+@@@@$$@@+OXOooooo+@@@@@@@@+ooo;%%%%%%%%%%%%%%%%%%%%",
"%%%%%%%%%%%%%%%%%%%%%%%;o@@@ooo+@@@$$@@@+o+oo+@@@@@@@@@@@+ooo;%%%%%%%%%%%%%%%%%%%%",
"%%%%%%%%%%%%%%%%%%%%%%%&+o@+ooo+@@@@@@@@$$$$$$$@@@@@@@@@@oooo&%%%%%%%%%%%%%%%%%%%%",
"%%%%%%%%%%%%%%%%%%%%%%%%&@+;$Ooo+@@@@@@@@@@$$$$$@@+o+@@@+++o+&%%%%%%%%%%%%%%%%%%%%",
"%%%%%%%%%%%%%%%%%%%%%%%%%-&-;oOo+@@@@@@@@@@@$@+oOOOXo@@@+++o+-%%%%%%%%%%%%%%%%%%%%",
"%%%%%%%%%%%%%%%%%%%%%%%%%%%%&+Ooo++@@@+@@ooOOOOOOOo+@@@+++oo;%%%%%%%%%%%%%%%%%%%%%",
"%%%%%%%%%%%%%%%%%%%%%%%%%%%%%;oooo+@@@oOXOOOOoo+oo+@@@@++oo+&%%%%%%%%%%%%%%%%%%%%%",
"%%%%%%%%%%%%%%%%%%%%%%%%%%%%%&+Oooo+@@+oooO++++oo+@@@@++ooo;%%%%%%%%%%%%%%%%%%%%%%",
"%%%%%%%%%%%%%%%%%%%%%%%%%%%%&%;ooo++@@@@+oooooo+++@@@@++ooo;%%%%%%%%%%%%%%%%%%%%%%",
"%*%%%%%%%%%%%%%%%%%%%%%%%%%%%%&+ooo++@@@@++ooooo++@@@+++++o;%%%%%%%%%%%%%%%%%%%%%%",
"%%%%%%%%%%%%%%%%%%%%%%%%%%%%%%&++oooo++@@@++ooo+@@@@@+oo+oO;%%%%%%%%%%%%%%%%%%%%%%",
"%%%%%%%%%%%%%%%%%%%%%%%%%%%%&%%+o++ooo+@+++@@@$$@@@@++o++oO;&&%%%%%%%%%%%%%%%%%%%%",
"%%%%%%%%%%%%%%%%%%%%%%%%%%%%%%-@oo++ooo++@@@@@@@@@@@++++ooOoXX;&%%%%%%%%%%%%%%%%%%",
"%%%%%%%%%%%%%%%%%%%%%%%%%%%%%&;ooooo+ooo++@@@@@@@+++++++ooOX..X;&%%%%%%%%%%%%%%%%%",
"%%%%%%%%%%%%%%%%%%%%%%%%%%%%%%XOoooOOooo++++@@@@++++++++ooOXXX.o&&%%%%%%%%%%%%%%%%",
"%%%%%%%%%%%%%%%%%%%%%%%%%%%%%&OXoo++oOOoo+++++++++++++++ooOXXXXo&;;&%%%%%%%%%%%%%%",
"%%%%%%%%%%%%%%%%%%%%%%%%****%-oXo++@@+oOOOoooo++++++++ooooO.XXX;&&;&&%%%%%%%%%%%%%",
"%%%%%%%%%%%%%%%%%%%%%%******%*$##+@@@@@+oOOOOOooo++++++oooO.OOX;&&&&&&&%%%%%%%%%%%",
"%%%%%%%%%%%%%%%%%%%%%*********-+X+@@@@@@++ooooooo+++++ooooX.XXo%&&&&&&&&%%%%%%%%%%",
"%%%%%%%%%%%%%%%%%%%%%**********&Xo++@@@@@@++ooooo+++ooooooX.OO&%%%%%&%%&&&%%%%%%%%",
"%%%%%%%%%%%%%%%%%%%%************;O++@@@@@@@@+++++++oooooooXXX;%%%%%%%%%%&%&&%%%%%%",
"%%%%%%%%%%%%%%%%%%***************;++++@@@@@@+++++++ooooooo.X;%%%%**%%*%%%%%%%%%%%%",
"%%%%%*%%%%%%%%%%%*****************$++@+@@@@@++++++++oooo+X.;***-%**%**%*%%%%%&%%%%",
"%%%%*%%%%%%%%%%%*******************&@@@@@@@@@@+++++++++oOO&********%*********%&&%%",
"%%%%%%%%%%%%%%%********************=-$@@@@@@@@@@++@@@+oo;-=*******************%&&%",
"%%%%%%%%%%%***************************-$$$@@@@@@@@@@++$-=***********************%%",
"%%%%%%%%%%%%*********************=****==-&&$$$$$$$$$&-=****=*********************%",
"%%%%%%%%%%%**********************=====****=*-----**==****===*****=***==***********",
"%%%%%%%%%%**********=************=====*****************====*****=****==*******===*",
"%%*%%%%%%***********=**************=**===************=====******=***===*******===*",
"%%%%%%%*************=***%**************====*****=======*********==***==*******==**",
"%%%%%*************==***=%******************=========************==***==******==***",
"*%%********=******==***=%***************************************==***===**==*==***",
"%%**********=*****=*****%***************************************=****==******=****",
"%***********=*****=*****%***************************************=****===*****==**=",
"%******=**********=*****%***************************************==***===***=*=****",
"%**==**=*******=********%***************************************==****==*****==**=",
"%%**==**=***=**=************************************************=*****==***=*==**=",
"%%***=====**=**=*****=******************************************=*****===*==**=**=",
"%%***======****=***===******************************************=*****===*==**=*==",
"%%***=======***=***===******************************************==****===*==****==",
"%%***=*======******===*******************************************=***=======*=**==",
"%%*****=======*****==********************************************=****======*=*===",
"%%*********===*****==********************************************=*****===========",
"%%%********==******==********************************************=*****===========",
"%%%*****************=********************************************=*****======*====",
"%%%********%**%*****=*****************************===**==********==****======**==*",
"%%%**********%%*****=**********===***%*=****==**--&;;;$o$********==*****====**%***",
"%%%*****%****%%*=***=*******--%-%-***=&+----&&;;$&&&&$oO$*********=****======*&%**",
"%%%******%****%*****=***-$$;;;;$$$o$$oo:$;;;$&----&$$;&-**********=***=======%;***",
"*%%*=*****%*****=**===**;o$&&&$$$$$oooO+&-----&;;;&-*****--=*-*=-******======%;***",
"%%%*=*********%*=**==***%$:o$$$o+$$$&&$oOo$;;;&-*==*****&$@&:+$$$$&****======%&**=",
"%%%****=*****%%*=**==***-o$;;&&-**==****$oo&======**---&+oo:$$$$$$;=***======%&*==",
"*%%****==****%%*==*==***%%--*==*********=*$o$$$$$$$$;;;$+o-;;-;;;:;=***======*&***",
"**%%***===***%%*=**==****=***==========**==*&&&&--**==;o$*====**===*****=====%&*=*",
"**%%****=**=*%%*************%;;;;;&&&&&----*==*=*%&&;&$$&&&&&&-*===****======*&***",
"***%****=*****%**=*********=&:&&&$$$$$$$;;:-***-:;$$$$$$$$$$;$$=*===**=======*&%**",
"***%%***==***%**==*=*******=$;==========*=;&=**&;=============;-=====*=======*&%**",
"****%*=*====*%%*==*********=$;=====*******-$**=$$===********==;;=*===========*%%**",
"******==*===*%***=*********=;&=====*==*****$-==$$=====**======-$=***=========*%***",
"*******=*===*%***=*********=;&=====*&---**=;$==;$=====*--***---$-=**==========%***",
"====***=*==**%***=*********=;&===*=;o$:$@$$+$==;&=====-o$$$$$$$o&=**=========*****",
"=====**=====****====******==;&=====;&=**--%&-==&-=====%;=*====**=================="
};
