/* XPM */
static char *id[] = {
/* columns rows colors chars-per-pixel */
"73 103 7 1 ",
"  c #281F17",
". c #A36D48",
"X c #C79169",
"o c #DADAD9",
"O c #E7E7E6",
"+ c #D3AC94",
"@ c #7E8179",
/* pixels */
"OOOoOOOoooooooooooooooooooooooooooooooooooooooooooooooooooooOOOOOOOOOOOOO",
"OOOOoooooooooooooooooooooooooooooooooooooooooooooooooooooooooOOOOOOOOOOOO",
"OooOooooooooooooooooooooooooooooooooooooooooooooOoooooooooooooOOOOOOOOOOO",
"ooooooooooooooooooooooooooooooooooooooooooooooooooooooooooooooooooooOOOOO",
"oooooooooooooooooooooooooo++@@+ooo+oo+@+o+o++oo+ooooooooooooooooooooOOOOO",
"oooooooooooooooOooooooooo+@@. @++@@++@@@++@+@+++oooooooooooooooooooOOOoOO",
"ooooooooooooooooooo@+oo@++@     @@ @+@ @@ @@@@@+@+oooooooooooooooooOooooo",
"oooooooooooOooooooo@@+@  @@            @@ @ @@@@@@@++oooooooooooooooooooo",
"oooooooooooooooo+++@ @@                 @      @  @++oooooooooooooooooooo",
"ooooooooooooo++@@@@    @                          @@+o+oooooooooooooooooo",
"ooooooooooooo+@@                                   @@@+oooooooooooooooooo",
"oooooooooooo++@                                      @ooooooooooooooooooo",
"ooooOOooooo++@                                      @+ooooooooooooooooooo",
"ooooooooooo@@@                                      @@@++oooooooooooooooo",
"oooooooooooo+@                                         @@+ooooooooooooooo",
"oooooooooo+++@                                          @++oooooooooooooo",
"ooooooooo+@                                             @@+oooooooooooooo",
"ooooooooo+@                                              +ooooooooooooooo",
"ooooooooo@                                               @+oooooooooooooo",
"ooooooo+@                                                 @oooooooooooooo",
"ooooooo+@                                                  +ooooooooooooo",
"ooooooo@                                                   @ooooooooooooo",
"oooooo+@                                                    +oooooooOoooo",
"oooooo+@                                   .                @oooooooooooo",
"oooooo+                                   . .               .oooooooooooo",
"oooooo@                                  .   .               +ooooooooooo",
"ooooo+@                               ............           @ooooooooooo",
"ooooo+@                    . .....................           @ooooooOoooo",
"oooooo@              .........XXXXX+X++XXXXX..XX..           @ooooooooooo",
"oooooo@            ......XXX+++++++++++++++XXXXXX..           +oooooooooo",
"oooooo@           ...XX+++++++++++++++++++++XXXXX..           @oooooooooo",
"oooooo@          ...XX++++++++++++++++++++++XXXXXX..          @oooooooooo",
"oooooo@          ..XX+++++++++++++++++++++++XXXXXX..          @oooooooooo",
"oooooo+         ...XX+++++++++++++++++++++++XXXXX...          .oooooooooo",
"oooooo+         ..XXXXXX++++++++++++++++++++XXXXX....          +ooooooooo",
"ooooooX         ..XXXXXX++++++++++++++++++++XXXXXX....         +ooooooooo",
"oooooo+         ...XXXXXX+++++++++++++++++++XXXXXX.....        +ooooooooo",
"oooooo+         ...XXXXXXXX++++++++++++++++++XXXXXX.....       @ooooooooo",
"oooooo+         ...XXXXXXXXX++++++++++++++++++XXXXX.....       @ooooooooo",
"oooooo+          ...XXXXXXX+++++++++++++++++++XX..XX.....      @+oooooooo",
"ooooooo@         ...XXXXX+++++++++++++++++XXX............      @X+ooooooo",
"ooooooo@         ...XXXXX+++++++++++++++XX.....XXX........     ...ooooooo",
"ooooooo+        ....XXXXX+++++++++++++XX.....X++++XX......     ...+oooooo",
"ooooooo+       .....XXXX++++++++++++++X.XX.XX++++XXX.......   ....Xoooooo",
"oooooooo@      .....X.........XXXX++++XXXXXXXXXXX..........   .....oooooo",
"oooooooo+      ...... ...........XXX++XXXX..XXXX...........   .....oooooo",
"oooooooo+      .... ...XXXXXX....XXXXXXXX..X..   .....XX...  .....Xoooooo",
"ooooooooo@     ......XXX++XXXXX..XXX+++X....    .@...XXXX..  ...X.Xoooooo",
"ooooooooo@     .....XXXXXXXXX.....XX++XX.X.X@   ...XXXXXX... .....Xoooooo",
"ooooooooo+.    ......XX...........XX++XXXX.X+@..XXXXXXXXX.....X...+oooooo",
"oooooooo+.X    ..........     ..X..X+++XXXXXXXXX++XXXXXXX.....X...+oooooo",
"ooooooooX.X.   ........  .   .+.XXXX++XXXXXXXXXX++++XXXX..........Xoooooo",
"ooooooooX  .   ....X.....X.  X+XXXXX+++XXXX++++++++++XXXX..... ...Xoooooo",
"oooooooo+. ..  ...XXXX..XXXXXXXX+XXX+++XXXX++++++++++XXX...........oooooo",
"ooooooooo..X.. ...XXXXXXXXXXXXX+XXXXX+XXXXXX+++++X++++XXX.....XXX..oooooo",
"ooooooooo+.XX.  ..XXXXXX++++++++XXXXXXXXXXXX++++++++++XX..........Xoooooo",
"oooooooooo....  ...XXXX+++++++++XXXXXXXXXXXX+++++++++XXX..........+oooooo",
"ooooooooooX.........XXX+++++++++XXXXX+XXXX.X+++++++++XXX..........ooooooo",
"oooooooooo+XXX+XX...XXXX++++++++XX.XX++++X.XX++++++++XXX.....X...+ooooooo",
"ooooooooooo+XXXXX...XXXX+++++++XX..X+++++XXXXXXX+++++XXXX...Xo++ooooooooo",
"ooooooooooo+XXXX.....XXXXX+++++XXXXX+++++XXXXXXXX++++XXXX...Xoooooooooooo",
"oooooooooooo..XXXX...XXXXX+++++XXXXXX++XX.....XXX++++XXXX...Xoooooooooooo",
"oooooooooooo+..XXX....XXXXX++++XXXX..XX.......XXXX+++XXX....Xoooooooooooo",
"oooooooooooo+X.XXXX....XXXX++++XXX.  ......XXXXX+XX+XXXXX...+oooooooooooo",
"ooooooooooooo+.XXXX....XXXX++++++XXXXXX.XXXXXXXXXXXXXXXX....+oooooooooooo",
"ooooooooooooooX.XXX.....XXXX++++++++++++++++XXXXXXXXXXXX....+oooooooooooo",
"oooooooooooooooXXX++....XXXXXXXXXXX++++++++++XXXXXXXXXXX....+oooooooooooo",
"oooooooooooooooo++oo....XXXXXXXXXXX+X+++++XXXX....XXXXXX....ooooooooooooo",
"ooooooooooooooooooooX...XXXXXXXXXXXXXXXXXX........XXXXXX...Xooooooooooooo",
"oooooooooooooooooooo+.....XXXXXXXXXX............XXXXXXXX...+ooooooooooooo",
"oooooooooooooooooooooX....XXXXXX...........X..XXXXXXXXX...Xoooooooooooooo",
"ooooooooooooooooooooo+.....XXXXX......XXXXX..XXXXXXXXX....+oooooooooooooo",
"ooooooooooooooooooooooX...XXXXXXXXX........XXXXXXXXXXXX..X+oooooooooooooo",
"oooooooooooooooooooooo+....XXXXXXXXXXX...XXXXXXXXXXXX...X.+oooooooooooooo",
"oooooooooooooooooooooo+@.....XXXXXXXXXXXX...XXXXXXXXXX.X..+oooooooooooooo",
"ooooooooooooooooooooooo@XX...XXXXXXXXXX....XXXXXXXXX...X..ooooooooooooooo",
"ooooooooooooooooooooooo@.X....XXXXXXXXXXXXX++XXXXXXX.XX...ooooooooooooooo",
"oooooooooooooooooooooooX..XX....XXXXXXXX++++XXXXXXXXXX....++@+ooooooooooo",
"oooooooooooooooooooooooX....X....XXXXXXXXXXXXXXXXXXXXX.....  @+oooooooooo",
"oooooooooooooooooooooo@..........XXXXXXXXXXXXXXXXXXXXX....    @+ooooooooo",
"oooooooooooooooooooooo....X.......XXXXXXXXXXXXXXXXXXXX.... .   @ooooooooo",
"ooooooooooooooooooooo+......X......XXXXXXXXXXXXXXXX.XX.... . . @oo+oooooo",
"ooooooooooooooooOOOooo. ..XXXX.......XXXXXXXXXXXXXX....... ....@oo++ooooo",
"oooooooooooooOOOOOOooo....XXXXXX..........XX.X.XXXX....... .. .+oo++ooooo",
"ooooooooooooOOoOOOOOoO+X..XXXXXXXX...........XXXX.XX...... .. .oooooooooo",
"oooooooooooOOOOOOOOOOOoX..XXXXXXXXXX...........XXXX......   ..+oooooooooo",
"ooooooooooOOOOOOOOOOOOOo..XXXXXXXXXXXXX.......XXX........  ...ooooooooooo",
"ooooooooooOOOOOOOOOOOOOO+..XXXXXXXXXXXXXXXXXXXXXX........  ..oooooooooooo",
"oooooooooOOOOOOOOOOOOOOOo+.XXXXXXXXXXXXXXXXXXXX.......... ..+oooooooooooo",
"ooooooOOOOOOOOOOOOOOOOOOOO+XXXXXXXXXXXXXXXXXX.X.......... .+oooooOOoooOoo",
"oooooOOOOOOOOOOOOOOOOOOOOOo+XXXXXXXXXXXXXXXXXXXX........  +OoOOooOOOooOOo",
"oooooOOOOOOOOOOOOOOOOOOOOOOOoXXXXXXXXXXXXXXXXXXXXX...X...oOOOOOOOOOOoOOOo",
"ooooOOOOOOOOOOOOOOOOOOOOOOOOOo+XXXXXXXXXXXXXXXXXXXXXX..XOOOOOOOOOOOOOOOOO",
"OooOOOOOOOOOOOOOOOOOOOOOOOOOOOO++XXXXXXXXXXXXXXXXXX..XoOOOOOOOOOOOOOOOOOO",
"OOOOOOOOOOOOOOOOOOOOOOOOOOOOOOOOoo+++++++XXXXXXXXXX+oOOOOOOOOOOOOOOOOOOOO",
"OOOOOOOOOOOOOOOOOOOOOOOOOOOOOOOOOOOoo++++++++++++ooOOOOOOOOOOOOOOOOOOOOOO",
"OOOOOOOOOOOOOOOOOOOOOOOOOOOOOOOOOOOOOOOoooooooOOOOOOOOOOOOOOOOOOOOOOOOOOO",
"OOOOOOOOOOOOOOOOOOOOOOOOOOOOOOOOOOOOOOOOOOOOOOOOOOOOOOOOOOOOOOOOOOOOOOOOO",
"OOOOOoOOOOOOOOOOOOOOOOOOOOOOOOOOOOOOOOOOOOOOOOOOOOOOOOOOOOOOOOOOOOOOOOOOO",
"OOOOOOOOOOOOOOOOOOOOOOOOOOOOOOOOOOOOOOOOOOOOOOOOOOOOOOOOOOOOOOOOOOOOOOOOO",
"OOOOOOOOOOOOOOOoOOOOOOOOOOOOOOOOOOOOOOOOOOOOOOOOOOOOOOOOOOOOOOOOOOOOOOOOO",
"OOOOOOOOOOOOOOOoOOOOOOOOOOOOOOOOOOOOOOOOOOOOOOOOOOOOOOOOOOOOOOOOOOOOOOOOO",
"OOOOOOOOOOOOOOOoOOOOOOOOOOOOOOOOOOOOOOOOOOOOOOOOOOOOOOOOOOOOOOOOOOOOOOOOO"
};
