/* XPM */
static char *rose2[] = {
/* columns rows colors chars-per-pixel */
"72 102 11 1 ",
"  c #533832",
". c #9D694C",
"X c #B4926C",
"o c #C49C76",
"O c #A5A4A4",
"+ c #CEAF93",
"@ c #D6B9A6",
"# c #D8AE9E",
"$ c #DDC6B1",
"% c #E1D5C9",
"& c #757B8D",
/* pixels */
"  &OOOOOOOOOOOOOOOOOOOOOOO&OOOOOOOOOOOOOOOOOO%$OOOOOOOOO&OOOOOOOOOOOOOOO",
"  OOOOOOOOOOOOOOOOOOOOOOOO&OOOOOOOOOOOOOOOOOOOOOOOOOOOOOOOOOOOOOOOOOOOOO",
" .OOOOOOOOOOOOOOOOOOOOOOOOOOOOOOOOOOOOOOOOOOOOOOOOOOOOOOOOOO&OOOOOOOOOOO",
" &OOOOOOOOOOOOOOOOOOOOOOOOOO$OOOOOOOOOOOOOOOOOOOOOOOOOOOOOOOOOOOOOO&OOOO",
" OOOOOOOOOOOOOOOOOOOOOOOOOOOOO$OOOOOOOOOOOOOOOOOOOOOOOOOOOOOOOOOOO&&&OOO",
".OOOOOOOOOOOOOOOOOOOOOOOOOOOXXOOXXOOOOOOOO$OOO$OOOOOOOOOOOOOOOOOOO&O&&OO",
"&OOOOOOO@OOOO@OOOOOOXXOOO+++++++++++O+OOOOOOOO%OOOOOOOOOOOOOOOOOOOOOO&&&",
"OOOOO@OOOOOOOOOOOX+++++++++++++#@$$@@$@#@@+OOOOOOO%OO$OOOOOOOOOOOOOOOO&&",
"OOOOOOOOOOOOXX+++++++#+++#++++#@@$$$$$$@$$@@@@+OOOOOOOOOOOOOOOOOOOOOOOOO",
"OOOOOOO@OOOO+++++++++++++++++#@@@$$$$$$$$$$@@@@$@++OOOOOOOOOOOOOOOOOOOOO",
"OOOOOOOOOX++++++++++##+++++###@@@$$$$$$$$$$$$$$$$$@@+OOOOO$OOOOOOOOOOOOO",
"OO$OOOOXX++++++++++++#+++#+#+#@@@@@@@@@@$@@$$$$$$$$$$@+OOOOOOOOOOO$OOOO&",
"OOOOOOXXooo+++++++++++++#+++++#@@@@@@@@@@$$$$$$$$$@$$@++oXXOOOOOOOOOOOOO",
"O@OOOXXooooo++++++++#++++++++++###@@@@@@$$$$$$$$$$$$$@#+++X...OOOOOOOO%O",
"@OOOOXXooooo+++++++++++++++++++++##@@@@@$$$$$$$$$$$$@@@+++X..  &OOOOOOOO",
"OO$O.XXooooo++++++++++++++++++++###@@@@$$$$$$$$$$$$@@@@@+++X.     OOOOOO",
"OOO&.XXoooo+++++++++++++++++++++###@@@@$$$$$$$$$$$$@@@##++ooX.      OOOO",
"OOO..XXooo+++++++++++++++++++++###@@@$$$$$$$$$$$$$$@@@#+++oXX.        OO",
"OOO..XXooo+++++++++++++++++++#@@@@@@@$$$$$$$$$$$$$$@@@@###++XXX.     @&O",
"OO...Xooo++++++++++++++++++@@@@@@$@@$$$$$$$$$$$$$$@@@@######+oX..   O%%%",
"OO..XXo++++++++++++++++++#@@@@@@@@@@@$$$$$$$$$$$$@@@@@#+++#+++oX.   @%%%",
"OO..XXo+++#++#+##+++++++++@@@@@@@@@@@@@@@$$$@$$@@@@@@@#+++++++++X   $%%%",
"OO ..XX+++++#@@#@@++#++++++#@@@@@@@@@@@+++++@@@@@@#+++++++++++++o.  $%%%",
"%&  ..Xo++@+++##@##@@+XXooX+XXX++++++++++oXXX+@@##++++++++++++++oX. O%%%",
"O       .X++X++@@@@@@+X..XXXX.   ... .........X+@++++++++++++++++oX  %%%",
"          X+Xo+@@@@@@+......X            ......X++++++++++++++++++X. %%%",
"           ..X++@@@@@@X    ..           ...X.....XXX++++++++++++++XX O%%",
"            ..+++@@@@@+. .. .     .  ..XX.XXXX..  ...o+++++++++++ooo. %%",
"   .X.       .X++@@@@@@........X.X+++++++@$@+@+X..  ..X++++++#+++oo+X .%",
"& .++@+O.     .++@@@@$@+..X+oX++o+++@@@$$$$$$$@#++X....o++++##+++oo+o  &",
"& X++@@@@+X    X+@@@@$@+oX++++++o+++@@@$$$$$$$@@@++oXXXoo+++#++++o+++.  ",
"O&.++#@@++++X  .X++@@$@@++++++oooo+++@@@$$$$$$$$@@@@++oX+++++++++++++.  ",
"OO.X++++++++oX. .o+#@@@@@++++oooXooo++@@$$$$$$$$$$$@+++++++#++#++++++.  ",
"OOO.XX.XooX+oXX..X++@@$$@@++oooXXXXoooo++++@@$@@$$@@@@#+++++++#++++++.  ",
"OOO&. .XXX+++++X..o+@$$$@@++oooX.Xooooo+++oo++@@@@@$$@@@@##++@@+++++o.  ",
"OOOX.       .X++X.X+@$$$$@++ooX...XXoo++@@++oXo+++@@$$$$@@@@+@@++++++X  ",
"&O$&   .OO   * .o.X#$$$$@@@++o.....     *.XXooXXo++@@@$$@@@@#++++++++X. ",
" O&    +$O  *&* .Xo@$$$@@#@@@o...  .   *&*   .XXoo++@$$$$@@@@++++++++X  ",
" &&&. .X@@   *  OX+@$$$@@#@@$oX. .O%$   *     ..XXo+@$$$$@@@@+++++++oX  ",
"  O&.  ..X.   ..Oo+@@$@@###@@+X..X+$%O     ....XXo+++@$$$@@@@#+++++++X  ",
"  & .......X+o+X.+#@@@@@####++XX...XXX. .O++oooo+++@@@$$$@@@@#+++++++o  ",
"    ..XXXoXXXXX.X+#@@@@@#++#@+oX......XX+++++++##+@@@$$$$@@@@++++++++X  ",
"    ..XoooooXXX.o+##@@###+++@@oX....XXX++@+@@@@@@@@@@$$$@@@@@++++++++X. ",
"    XXXo++ooooXX++#####++#++@@+X..XXXo++#@@@@@@@@@$$$@@@@@@@@+++++++oX. ",
"    X+++o++++oXo++#####++++++@++XXXXXo++++##+##@@$$$@@@@@$@@++++++++oX. ",
"    X+#++++++XX++##@@##++++++#@@++ooXo++++++#@@$$$$$@@@@@@@#++++++++X.. ",
"    X+###++++Xo++#@@@###+++####@##++++++#+#@@@$$$$$$@@@@@@#++o+++++o... ",
"   .X++++++++X++#@@@@###++#########+++++++#@@@$$$$$$@$@@@@@++Xo++++XXX. ",
"   .X+++++++oX++@@$$@#########@#####+++++###@$$$$$$$$$$@@@@++oo++++XXX. ",
"   .o+++++++Xo+#@@@$@@########@###+++++++##@$$$$$$$$$$$$@@+++ooooooooX. ",
"   .o++#++++X+#@@@@@@#############++++++##@@$$$$$$@$$$$$@@++++ooooo+oX  ",
"   X+++#++@XX+###@@@########@@@#++#######@@@#@$$$$$$$$$$@@#++oooooo++X  ",
"   X+####@+Xo+#######+++++#@$$@@########@@@@@@$$$@$$$$$@@@+++oooXoo++. .",
"   o++##@#Xo+########++++##@$$@@####+###@@$$$$$$$$$$$$@@@@+++ooXXoXoX. X",
"   o++##@+X+#@@@@###+++++###@@@@#####X+@@$$$$$$$$$$$@$@@@#++++XXXooo...X",
"   o+##@+X++@@@@@###++++++++#@@#####+.X@$$$$$$$$$$$@@@@@@++++oXXXXoo...X",
"   X+#@@oo##@@@@@@@##++ooooo+@@+++###++@$$$%%%%$$$$@#@@@#++++ooXXXXXXXXX",
"   .++@+X+#@@@@$$@@##++oo+++++#+oo++##@$$$%%%%%$$$@@##@@+++++oooXXXXX.XX",
"   .o+#+o#@@@@$$$$@@#+++++++++ooooo+##@@$%%%%%$$$$$@##+#+++oooooXXXXX.XX",
"    Xo+oo@@@$$%$$$$@@######+++Xo+ooo++#@$$$$$$$$@@@@##++++ooooooX.XXXXXX",
"    .ooX+@@$$%%%%%$$@@@@@@@#++Xo+++oo+###@$$$$$@@@@@#+++++++oooXoXXXXXXX",
"     .oX+@@@$%%%%%$$@@@@@@@@+oo+@@++oo+++@@@@@$@@@##++++o++ooooooXXXXX+@",
"      XX+@@@$%%%$$@@@@@@@##+oX+$$$@#+oo++#@@@@@@####+++++oooooXXXXXX+$$%",
"      .X+@@@@$@@@@#++++++++o+#$$$$$@#+oo+###@@@#+##+++++oooooXXXX..o$$%%",
".XXX   .o@@#@@@+++oXX++++++#@$$$$$$$@#+oo+++###+++++++o+oXXXo+$$@+oo$%%%",
"....   ..o++++++o...X@+++@@+@@$$$$$$@@@+oo++++++++ooXooooX.X+@$$$@+X+%%%",
"oXX..   . .XXXXoX.X+++XXXO+++@$@@$@@@@@@+oo+++++++oooooX..X#@$$$$@+oo%%%",
"$$@++XX    ..o...XXXoX...X.X++@@@@+++++@@@+++++++++++oX..X@$$%%%$@++X$%%",
"$$$$@++X      oo............XO+++++o++++#@@+++++++++oX..o+$%%%%%$@@+X@%%",
"$$%$$@@+.      o . .........XOX+O+XXXXX++++++++#+ooXoX.o+@$%%%%%%$@@o+%%",
"XXo@$$@+X.       .. ........XXXXXX.....Xo+++#@#+o+@@@@oX+@$$%%%%%$@@++%%",
"+X...X+@+X    . ... .X...  ....XXX......Xooo+@+o+@$@@@@+o+$$%%%%%$@@++%%",
"+++oX...XoX   ..oo...oX.X..X.XXoXX........XX++++@$$$$@@@XX@$%%%%%$@@++%%",
"@+++++oX..oX. ..++oXX++...X+++++++X..   ..X++++@$$$$$$@@XX+$%%%%%%$@++%%",
"@$$$@@@@+oooX  ...XXXXXX..XX+oXXX.....XoXXo++o@@$$$$$$@@X.+@$%%%%%$@++%%",
"$%$@$@$@@+ooX... ....XXX.....XXXXX..X+@@ooo++X+@$%$$$$@@o X@$%%%%%$@+o%%",
"$%$+@$$$$@+X...............o++##++o+#@@@++++o.+@$$$$$$@@+ .+$%%%%%$@++%%",
"$$$++@@@@@+XX..XXoX...ooo+#@@#+++++@@@$@@#++o.o@$%$$$$$@+..o$%%%%%$@++%%",
"$$$+X+@@++++X..Xo+XXoo++#@$$@#++#@@@@@$$@#++o.o$$%%%$$$@@. X$%%%%%$@++%%",
"$$@+XX+oXX#+X...Xo..Xo###@@@#@@@@@@@@@@@@#+++XX$%%%%%$$@@. +$%%%%%$@o+%%",
"@@+X  . .+++X....X..Xo+++##@@@@@@@@@@@@++++++XX$%%%%%$$@@X.+$%%%%%$@o+%%",
"+o..    .o++X...XXX.XXoo+#@@@@@@@@@@@@###++++XX$%%%%%%$@++o+$%%%%%$@o+%%",
"@++oX  ..Xo+o....XXoXoo++++++++#@@@@@@##+++++X.$%%%%%$$@+o++$%%%%%$@o+%%",
"$$@+o  ...o++........XXX+oX++++#@@@@@##+++++oXX$%%%%%$$@+o+@%%%%%%$@X+%%",
"$@@+o  ...Xoo.XXX......XX.X++#++##@@#+++++ooXX+$$%%%%$$@+o+$%%%%%%$@X+%%",
"$@@+X   ...oo..XXoXXX..XXX+++++++##+++++++ooX.+$$%HEY$$@++@$%%%%%%$@X+%%",
"$@@o.    . .. .XXoooXXXXXoo+++++++++@@++++oX.X+@$COUCOU@++@$%%%%%%$@Xo$%",
"$$+....   ..  .Xooo+++++++++++++++@@@@+++oX.X+@$$%TOI$$@#+@$%%%%%%$@Xo$%",
"$#XX++oX.  ... XXoo++++++#@+@@@@@@@@@@+++XXX++@@$%%%%$$@@+@$%%%%%%$@oo$%",
"@+#@@@++oX     .XXo+++#++@@@@@@@@@+++++XX..X@@@@$%%%%%$@@++$%%%%%%$@oo$%",
"@$$$@@@+++XX.. .Xooo+##++##@@@@@@++++XX...X+@@@$$$%%%%$$@++$$%%%%%$$o+$%",
"@$$$$@@@@+++oX. .oo+++++++###@@@++++XX..Xoo+$$$$$$$%%%$$$@+@$%%%%%$$++$%",
"@@$$$$$@@@++++X .XX+++++++#@#@@@++XX...Xo++@$$$$$$$%%$$$@@+@$%%%%%$@o+%%",
"@@$$$$$@@@@@#++. Xo++++oo++#++++XXX..XXo+@@@$$@@$$$$$$$$@++@$%%%%$$+X@%%",
"@@$$$$$$$$$@@@++..o+++++Xo++++++X. .Xoo+@$$$$@@@@$$$$@@@@++$$%%%$@+XX$$$",
"@@@$$JOYEUX$$$@@+X.XX++XoXo++++X. .Xo++@@$$$$@@@@@$@@@+++++@$$$@++oX+$@+",
"@@@ANNIVERSAIRE@@#X..XXXXXXXXX.. .Xo+@@@$$$$$$@@@@@@++++Xo++@@+oooXX+++X",
"@@@@$$$$$$$%$$$$$@@+X.........  .Xo+@@$$$$$$$$@@@+++++oXX+++++XooXX+++X.",
"++@@@$$$$$%%%%$$$$@@#+X....    .Xo++@$$$$$$$$$@@++++oXXXo++++oooXXX++X.X",
"o++@@$$$$$$%%%%%%$$$$@@#+X..  .XX+++@$$$$$$$$@@+++++XXXo+++++ooXXX+oXXX.",
".o++@@$$$$$$%%%%%%%%$$$@@@++..XXo+++@$$$$$$$@@+++++oXX+++++++XXXX+XXX.  ",
" .X++@@$$$$$$%%%%%%%%%$$@@#+..XXo++@@$$$$$$@@+++++oXXo++++++oXXXoX...  &"
};
